<?xml version="1.0" encoding="utf-8" standalone="no"?>
<!DOCTYPE svg PUBLIC "-//W3C//DTD SVG 1.1//EN"
  "http://www.w3.org/Graphics/SVG/1.1/DTD/svg11.dtd">
<!-- Created with matplotlib (http://matplotlib.org/) -->
<svg height="288pt" version="1.1" viewBox="0 0 432 288" width="432pt" xmlns="http://www.w3.org/2000/svg" xmlns:xlink="http://www.w3.org/1999/xlink">
 <defs>
  <style type="text/css">
*{stroke-linecap:butt;stroke-linejoin:round;stroke-miterlimit:4;}
  </style>
 </defs>
 <g id="figure_1">
  <g id="patch_1">
   <path d="M 0 288 
L 432 288 
L 432 0 
L 0 0 
z
" style="fill:#ffffff;"/>
  </g>
  <g id="axes_1">
   <g id="patch_2">
    <path d="M 109.8 252 
L 333 252 
L 333 28.8 
L 109.8 28.8 
L 109.8 252 
z
" style="fill:none;"/>
   </g>
   <g id="PathCollection_1">
    <defs>
     <path d="M 0 2.236068 
C 0.593012 2.236068 1.161816 2.000462 1.581139 1.581139 
C 2.000462 1.161816 2.236068 0.593012 2.236068 0 
C 2.236068 -0.593012 2.000462 -1.161816 1.581139 -1.581139 
C 1.161816 -2.000462 0.593012 -2.236068 0 -2.236068 
C -0.593012 -2.236068 -1.161816 -2.000462 -1.581139 -1.581139 
C -2.000462 -1.161816 -2.236068 -0.593012 -2.236068 0 
C -2.236068 0.593012 -2.000462 1.161816 -1.581139 1.581139 
C -1.161816 2.000462 -0.593012 2.236068 0 2.236068 
z
" id="m27e8d541ed" style="stroke:#000000;"/>
    </defs>
    <g clip-path="url(#pce9ba85616)">
     <use style="fill:#0000ff;stroke:#000000;" x="140.250453892" xlink:href="#m27e8d541ed" y="194.25375924"/>
     <use style="fill:#0000ff;stroke:#000000;" x="142.377722601" xlink:href="#m27e8d541ed" y="205.517382134"/>
     <use style="fill:#0000ff;stroke:#000000;" x="264.993174296" xlink:href="#m27e8d541ed" y="59.2504538918"/>
     <use style="fill:#0000ff;stroke:#000000;" x="174.314767652" xlink:href="#m27e8d541ed" y="182.1216894"/>
     <use style="fill:#0000ff;stroke:#000000;" x="176.872605778" xlink:href="#m27e8d541ed" y="150.257116429"/>
     <use style="fill:#0000ff;stroke:#000000;" x="248.346520163" xlink:href="#m27e8d541ed" y="77.7162181409"/>
     <use style="fill:#0000ff;stroke:#000000;" x="217.154902223" xlink:href="#m27e8d541ed" y="168.613868053"/>
    </g>
   </g>
   <g id="line2d_1">
    <path clip-path="url(#pce9ba85616)" d="M 109.8 252 
L 333 28.8 
" style="fill:none;stroke:#000000;stroke-dasharray:6.000000,6.000000;stroke-dashoffset:0.0;"/>
   </g>
   <g id="patch_3">
    <path d="M 109.8 28.8 
L 333 28.8 
" style="fill:none;stroke:#000000;stroke-linecap:square;stroke-linejoin:miter;"/>
   </g>
   <g id="patch_4">
    <path d="M 333 252 
L 333 28.8 
" style="fill:none;stroke:#000000;stroke-linecap:square;stroke-linejoin:miter;"/>
   </g>
   <g id="patch_5">
    <path d="M 109.8 252 
L 333 252 
" style="fill:none;stroke:#000000;stroke-linecap:square;stroke-linejoin:miter;"/>
   </g>
   <g id="patch_6">
    <path d="M 109.8 252 
L 109.8 28.8 
" style="fill:none;stroke:#000000;stroke-linecap:square;stroke-linejoin:miter;"/>
   </g>
   <g id="matplotlib.axis_1">
    <g id="xtick_1">
     <g id="line2d_2">
      <path clip-path="url(#pce9ba85616)" d="M 117.178145 252 
L 117.178145 28.8 
" style="fill:none;stroke:#000000;stroke-dasharray:1.000000,3.000000;stroke-dashoffset:0.0;stroke-width:0.5;"/>
     </g>
     <g id="line2d_3">
      <defs>
       <path d="M 0 0 
L 0 -4 
" id="m5add60842f" style="stroke:#000000;stroke-width:0.5;"/>
      </defs>
      <g>
       <use style="stroke:#000000;stroke-width:0.5;" x="117.178144978" xlink:href="#m5add60842f" y="252.0"/>
      </g>
     </g>
     <g id="line2d_4">
      <defs>
       <path d="M 0 0 
L 0 4 
" id="m43c56b1659" style="stroke:#000000;stroke-width:0.5;"/>
      </defs>
      <g>
       <use style="stroke:#000000;stroke-width:0.5;" x="117.178144978" xlink:href="#m43c56b1659" y="28.8"/>
      </g>
     </g>
     <g id="text_1">
      <!-- 0.55 -->
      <defs>
       <path d="M 31.78125 66.40625 
Q 24.171875 66.40625 20.328125 58.90625 
Q 16.5 51.421875 16.5 36.375 
Q 16.5 21.390625 20.328125 13.890625 
Q 24.171875 6.390625 31.78125 6.390625 
Q 39.453125 6.390625 43.28125 13.890625 
Q 47.125 21.390625 47.125 36.375 
Q 47.125 51.421875 43.28125 58.90625 
Q 39.453125 66.40625 31.78125 66.40625 
M 31.78125 74.21875 
Q 44.046875 74.21875 50.515625 64.515625 
Q 56.984375 54.828125 56.984375 36.375 
Q 56.984375 17.96875 50.515625 8.265625 
Q 44.046875 -1.421875 31.78125 -1.421875 
Q 19.53125 -1.421875 13.0625 8.265625 
Q 6.59375 17.96875 6.59375 36.375 
Q 6.59375 54.828125 13.0625 64.515625 
Q 19.53125 74.21875 31.78125 74.21875 
" id="DejaVuSans-30"/>
       <path d="M 10.796875 72.90625 
L 49.515625 72.90625 
L 49.515625 64.59375 
L 19.828125 64.59375 
L 19.828125 46.734375 
Q 21.96875 47.46875 24.109375 47.828125 
Q 26.265625 48.1875 28.421875 48.1875 
Q 40.625 48.1875 47.75 41.5 
Q 54.890625 34.8125 54.890625 23.390625 
Q 54.890625 11.625 47.5625 5.09375 
Q 40.234375 -1.421875 26.90625 -1.421875 
Q 22.3125 -1.421875 17.546875 -0.640625 
Q 12.796875 0.140625 7.71875 1.703125 
L 7.71875 11.625 
Q 12.109375 9.234375 16.796875 8.0625 
Q 21.484375 6.890625 26.703125 6.890625 
Q 35.15625 6.890625 40.078125 11.328125 
Q 45.015625 15.765625 45.015625 23.390625 
Q 45.015625 31 40.078125 35.4375 
Q 35.15625 39.890625 26.703125 39.890625 
Q 22.75 39.890625 18.8125 39.015625 
Q 14.890625 38.140625 10.796875 36.28125 
z
" id="DejaVuSans-35"/>
       <path d="M 10.6875 12.40625 
L 21 12.40625 
L 21 0 
L 10.6875 0 
z
" id="DejaVuSans-2e"/>
      </defs>
      <g transform="translate(106.045332478 263.5984375)scale(0.1 -0.1)">
       <use xlink:href="#DejaVuSans-30"/>
       <use x="63.623046875" xlink:href="#DejaVuSans-2e"/>
       <use x="95.41015625" xlink:href="#DejaVuSans-35"/>
       <use x="159.033203125" xlink:href="#DejaVuSans-35"/>
      </g>
     </g>
    </g>
    <g id="xtick_2">
     <g id="line2d_5">
      <path clip-path="url(#pce9ba85616)" d="M 147.628599 252 
L 147.628599 28.8 
" style="fill:none;stroke:#000000;stroke-dasharray:1.000000,3.000000;stroke-dashoffset:0.0;stroke-width:0.5;"/>
     </g>
     <g id="line2d_6">
      <g>
       <use style="stroke:#000000;stroke-width:0.5;" x="147.62859887" xlink:href="#m5add60842f" y="252.0"/>
      </g>
     </g>
     <g id="line2d_7">
      <g>
       <use style="stroke:#000000;stroke-width:0.5;" x="147.62859887" xlink:href="#m43c56b1659" y="28.8"/>
      </g>
     </g>
     <g id="text_2">
      <!-- 0.60 -->
      <defs>
       <path d="M 33.015625 40.375 
Q 26.375 40.375 22.484375 35.828125 
Q 18.609375 31.296875 18.609375 23.390625 
Q 18.609375 15.53125 22.484375 10.953125 
Q 26.375 6.390625 33.015625 6.390625 
Q 39.65625 6.390625 43.53125 10.953125 
Q 47.40625 15.53125 47.40625 23.390625 
Q 47.40625 31.296875 43.53125 35.828125 
Q 39.65625 40.375 33.015625 40.375 
M 52.59375 71.296875 
L 52.59375 62.3125 
Q 48.875 64.0625 45.09375 64.984375 
Q 41.3125 65.921875 37.59375 65.921875 
Q 27.828125 65.921875 22.671875 59.328125 
Q 17.53125 52.734375 16.796875 39.40625 
Q 19.671875 43.65625 24.015625 45.921875 
Q 28.375 48.1875 33.59375 48.1875 
Q 44.578125 48.1875 50.953125 41.515625 
Q 57.328125 34.859375 57.328125 23.390625 
Q 57.328125 12.15625 50.6875 5.359375 
Q 44.046875 -1.421875 33.015625 -1.421875 
Q 20.359375 -1.421875 13.671875 8.265625 
Q 6.984375 17.96875 6.984375 36.375 
Q 6.984375 53.65625 15.1875 63.9375 
Q 23.390625 74.21875 37.203125 74.21875 
Q 40.921875 74.21875 44.703125 73.484375 
Q 48.484375 72.75 52.59375 71.296875 
" id="DejaVuSans-36"/>
      </defs>
      <g transform="translate(136.49578637 263.5984375)scale(0.1 -0.1)">
       <use xlink:href="#DejaVuSans-30"/>
       <use x="63.623046875" xlink:href="#DejaVuSans-2e"/>
       <use x="95.41015625" xlink:href="#DejaVuSans-36"/>
       <use x="159.033203125" xlink:href="#DejaVuSans-30"/>
      </g>
     </g>
    </g>
    <g id="xtick_3">
     <g id="line2d_8">
      <path clip-path="url(#pce9ba85616)" d="M 178.079053 252 
L 178.079053 28.8 
" style="fill:none;stroke:#000000;stroke-dasharray:1.000000,3.000000;stroke-dashoffset:0.0;stroke-width:0.5;"/>
     </g>
     <g id="line2d_9">
      <g>
       <use style="stroke:#000000;stroke-width:0.5;" x="178.079052762" xlink:href="#m5add60842f" y="252.0"/>
      </g>
     </g>
     <g id="line2d_10">
      <g>
       <use style="stroke:#000000;stroke-width:0.5;" x="178.079052762" xlink:href="#m43c56b1659" y="28.8"/>
      </g>
     </g>
     <g id="text_3">
      <!-- 0.65 -->
      <g transform="translate(166.946240262 263.5984375)scale(0.1 -0.1)">
       <use xlink:href="#DejaVuSans-30"/>
       <use x="63.623046875" xlink:href="#DejaVuSans-2e"/>
       <use x="95.41015625" xlink:href="#DejaVuSans-36"/>
       <use x="159.033203125" xlink:href="#DejaVuSans-35"/>
      </g>
     </g>
    </g>
    <g id="xtick_4">
     <g id="line2d_11">
      <path clip-path="url(#pce9ba85616)" d="M 208.529507 252 
L 208.529507 28.8 
" style="fill:none;stroke:#000000;stroke-dasharray:1.000000,3.000000;stroke-dashoffset:0.0;stroke-width:0.5;"/>
     </g>
     <g id="line2d_12">
      <g>
       <use style="stroke:#000000;stroke-width:0.5;" x="208.529506654" xlink:href="#m5add60842f" y="252.0"/>
      </g>
     </g>
     <g id="line2d_13">
      <g>
       <use style="stroke:#000000;stroke-width:0.5;" x="208.529506654" xlink:href="#m43c56b1659" y="28.8"/>
      </g>
     </g>
     <g id="text_4">
      <!-- 0.70 -->
      <defs>
       <path d="M 8.203125 72.90625 
L 55.078125 72.90625 
L 55.078125 68.703125 
L 28.609375 0 
L 18.3125 0 
L 43.21875 64.59375 
L 8.203125 64.59375 
z
" id="DejaVuSans-37"/>
      </defs>
      <g transform="translate(197.396694154 263.5984375)scale(0.1 -0.1)">
       <use xlink:href="#DejaVuSans-30"/>
       <use x="63.623046875" xlink:href="#DejaVuSans-2e"/>
       <use x="95.41015625" xlink:href="#DejaVuSans-37"/>
       <use x="159.033203125" xlink:href="#DejaVuSans-30"/>
      </g>
     </g>
    </g>
    <g id="xtick_5">
     <g id="line2d_14">
      <path clip-path="url(#pce9ba85616)" d="M 238.979961 252 
L 238.979961 28.8 
" style="fill:none;stroke:#000000;stroke-dasharray:1.000000,3.000000;stroke-dashoffset:0.0;stroke-width:0.5;"/>
     </g>
     <g id="line2d_15">
      <g>
       <use style="stroke:#000000;stroke-width:0.5;" x="238.979960545" xlink:href="#m5add60842f" y="252.0"/>
      </g>
     </g>
     <g id="line2d_16">
      <g>
       <use style="stroke:#000000;stroke-width:0.5;" x="238.979960545" xlink:href="#m43c56b1659" y="28.8"/>
      </g>
     </g>
     <g id="text_5">
      <!-- 0.75 -->
      <g transform="translate(227.847148045 263.5984375)scale(0.1 -0.1)">
       <use xlink:href="#DejaVuSans-30"/>
       <use x="63.623046875" xlink:href="#DejaVuSans-2e"/>
       <use x="95.41015625" xlink:href="#DejaVuSans-37"/>
       <use x="159.033203125" xlink:href="#DejaVuSans-35"/>
      </g>
     </g>
    </g>
    <g id="xtick_6">
     <g id="line2d_17">
      <path clip-path="url(#pce9ba85616)" d="M 269.430414 252 
L 269.430414 28.8 
" style="fill:none;stroke:#000000;stroke-dasharray:1.000000,3.000000;stroke-dashoffset:0.0;stroke-width:0.5;"/>
     </g>
     <g id="line2d_18">
      <g>
       <use style="stroke:#000000;stroke-width:0.5;" x="269.430414437" xlink:href="#m5add60842f" y="252.0"/>
      </g>
     </g>
     <g id="line2d_19">
      <g>
       <use style="stroke:#000000;stroke-width:0.5;" x="269.430414437" xlink:href="#m43c56b1659" y="28.8"/>
      </g>
     </g>
     <g id="text_6">
      <!-- 0.80 -->
      <defs>
       <path d="M 31.78125 34.625 
Q 24.75 34.625 20.71875 30.859375 
Q 16.703125 27.09375 16.703125 20.515625 
Q 16.703125 13.921875 20.71875 10.15625 
Q 24.75 6.390625 31.78125 6.390625 
Q 38.8125 6.390625 42.859375 10.171875 
Q 46.921875 13.96875 46.921875 20.515625 
Q 46.921875 27.09375 42.890625 30.859375 
Q 38.875 34.625 31.78125 34.625 
M 21.921875 38.8125 
Q 15.578125 40.375 12.03125 44.71875 
Q 8.5 49.078125 8.5 55.328125 
Q 8.5 64.0625 14.71875 69.140625 
Q 20.953125 74.21875 31.78125 74.21875 
Q 42.671875 74.21875 48.875 69.140625 
Q 55.078125 64.0625 55.078125 55.328125 
Q 55.078125 49.078125 51.53125 44.71875 
Q 48 40.375 41.703125 38.8125 
Q 48.828125 37.15625 52.796875 32.3125 
Q 56.78125 27.484375 56.78125 20.515625 
Q 56.78125 9.90625 50.3125 4.234375 
Q 43.84375 -1.421875 31.78125 -1.421875 
Q 19.734375 -1.421875 13.25 4.234375 
Q 6.78125 9.90625 6.78125 20.515625 
Q 6.78125 27.484375 10.78125 32.3125 
Q 14.796875 37.15625 21.921875 38.8125 
M 18.3125 54.390625 
Q 18.3125 48.734375 21.84375 45.5625 
Q 25.390625 42.390625 31.78125 42.390625 
Q 38.140625 42.390625 41.71875 45.5625 
Q 45.3125 48.734375 45.3125 54.390625 
Q 45.3125 60.0625 41.71875 63.234375 
Q 38.140625 66.40625 31.78125 66.40625 
Q 25.390625 66.40625 21.84375 63.234375 
Q 18.3125 60.0625 18.3125 54.390625 
" id="DejaVuSans-38"/>
      </defs>
      <g transform="translate(258.297601937 263.5984375)scale(0.1 -0.1)">
       <use xlink:href="#DejaVuSans-30"/>
       <use x="63.623046875" xlink:href="#DejaVuSans-2e"/>
       <use x="95.41015625" xlink:href="#DejaVuSans-38"/>
       <use x="159.033203125" xlink:href="#DejaVuSans-30"/>
      </g>
     </g>
    </g>
    <g id="xtick_7">
     <g id="line2d_20">
      <path clip-path="url(#pce9ba85616)" d="M 299.880868 252 
L 299.880868 28.8 
" style="fill:none;stroke:#000000;stroke-dasharray:1.000000,3.000000;stroke-dashoffset:0.0;stroke-width:0.5;"/>
     </g>
     <g id="line2d_21">
      <g>
       <use style="stroke:#000000;stroke-width:0.5;" x="299.880868329" xlink:href="#m5add60842f" y="252.0"/>
      </g>
     </g>
     <g id="line2d_22">
      <g>
       <use style="stroke:#000000;stroke-width:0.5;" x="299.880868329" xlink:href="#m43c56b1659" y="28.8"/>
      </g>
     </g>
     <g id="text_7">
      <!-- 0.85 -->
      <g transform="translate(288.748055829 263.5984375)scale(0.1 -0.1)">
       <use xlink:href="#DejaVuSans-30"/>
       <use x="63.623046875" xlink:href="#DejaVuSans-2e"/>
       <use x="95.41015625" xlink:href="#DejaVuSans-38"/>
       <use x="159.033203125" xlink:href="#DejaVuSans-35"/>
      </g>
     </g>
    </g>
    <g id="xtick_8">
     <g id="line2d_23">
      <path clip-path="url(#pce9ba85616)" d="M 330.331322 252 
L 330.331322 28.8 
" style="fill:none;stroke:#000000;stroke-dasharray:1.000000,3.000000;stroke-dashoffset:0.0;stroke-width:0.5;"/>
     </g>
     <g id="line2d_24">
      <g>
       <use style="stroke:#000000;stroke-width:0.5;" x="330.331322221" xlink:href="#m5add60842f" y="252.0"/>
      </g>
     </g>
     <g id="line2d_25">
      <g>
       <use style="stroke:#000000;stroke-width:0.5;" x="330.331322221" xlink:href="#m43c56b1659" y="28.8"/>
      </g>
     </g>
     <g id="text_8">
      <!-- 0.90 -->
      <defs>
       <path d="M 10.984375 1.515625 
L 10.984375 10.5 
Q 14.703125 8.734375 18.5 7.8125 
Q 22.3125 6.890625 25.984375 6.890625 
Q 35.75 6.890625 40.890625 13.453125 
Q 46.046875 20.015625 46.78125 33.40625 
Q 43.953125 29.203125 39.59375 26.953125 
Q 35.25 24.703125 29.984375 24.703125 
Q 19.046875 24.703125 12.671875 31.3125 
Q 6.296875 37.9375 6.296875 49.421875 
Q 6.296875 60.640625 12.9375 67.421875 
Q 19.578125 74.21875 30.609375 74.21875 
Q 43.265625 74.21875 49.921875 64.515625 
Q 56.59375 54.828125 56.59375 36.375 
Q 56.59375 19.140625 48.40625 8.859375 
Q 40.234375 -1.421875 26.421875 -1.421875 
Q 22.703125 -1.421875 18.890625 -0.6875 
Q 15.09375 0.046875 10.984375 1.515625 
M 30.609375 32.421875 
Q 37.25 32.421875 41.125 36.953125 
Q 45.015625 41.5 45.015625 49.421875 
Q 45.015625 57.28125 41.125 61.84375 
Q 37.25 66.40625 30.609375 66.40625 
Q 23.96875 66.40625 20.09375 61.84375 
Q 16.21875 57.28125 16.21875 49.421875 
Q 16.21875 41.5 20.09375 36.953125 
Q 23.96875 32.421875 30.609375 32.421875 
" id="DejaVuSans-39"/>
      </defs>
      <g transform="translate(319.198509721 263.5984375)scale(0.1 -0.1)">
       <use xlink:href="#DejaVuSans-30"/>
       <use x="63.623046875" xlink:href="#DejaVuSans-2e"/>
       <use x="95.41015625" xlink:href="#DejaVuSans-39"/>
       <use x="159.033203125" xlink:href="#DejaVuSans-30"/>
      </g>
     </g>
    </g>
    <g id="text_9">
     <!-- AUROC (PSSM) -->
     <defs>
      <path d="M 9.8125 72.90625 
L 24.515625 72.90625 
L 43.109375 23.296875 
L 61.8125 72.90625 
L 76.515625 72.90625 
L 76.515625 0 
L 66.890625 0 
L 66.890625 64.015625 
L 48.09375 14.015625 
L 38.1875 14.015625 
L 19.390625 64.015625 
L 19.390625 0 
L 9.8125 0 
z
" id="DejaVuSans-4d"/>
      <path d="M 39.40625 66.21875 
Q 28.65625 66.21875 22.328125 58.203125 
Q 16.015625 50.203125 16.015625 36.375 
Q 16.015625 22.609375 22.328125 14.59375 
Q 28.65625 6.59375 39.40625 6.59375 
Q 50.140625 6.59375 56.421875 14.59375 
Q 62.703125 22.609375 62.703125 36.375 
Q 62.703125 50.203125 56.421875 58.203125 
Q 50.140625 66.21875 39.40625 66.21875 
M 39.40625 74.21875 
Q 54.734375 74.21875 63.90625 63.9375 
Q 73.09375 53.65625 73.09375 36.375 
Q 73.09375 19.140625 63.90625 8.859375 
Q 54.734375 -1.421875 39.40625 -1.421875 
Q 24.03125 -1.421875 14.8125 8.828125 
Q 5.609375 19.09375 5.609375 36.375 
Q 5.609375 53.65625 14.8125 63.9375 
Q 24.03125 74.21875 39.40625 74.21875 
" id="DejaVuSans-4f"/>
      <path d="M 8.015625 75.875 
L 15.828125 75.875 
Q 23.140625 64.359375 26.78125 53.3125 
Q 30.421875 42.28125 30.421875 31.390625 
Q 30.421875 20.453125 26.78125 9.375 
Q 23.140625 -1.703125 15.828125 -13.1875 
L 8.015625 -13.1875 
Q 14.5 -2 17.703125 9.0625 
Q 20.90625 20.125 20.90625 31.390625 
Q 20.90625 42.671875 17.703125 53.65625 
Q 14.5 64.65625 8.015625 75.875 
" id="DejaVuSans-29"/>
      <path id="DejaVuSans-20"/>
      <path d="M 34.1875 63.1875 
L 20.796875 26.90625 
L 47.609375 26.90625 
z
M 28.609375 72.90625 
L 39.796875 72.90625 
L 67.578125 0 
L 57.328125 0 
L 50.6875 18.703125 
L 17.828125 18.703125 
L 11.1875 0 
L 0.78125 0 
z
" id="DejaVuSans-41"/>
      <path d="M 64.40625 67.28125 
L 64.40625 56.890625 
Q 59.421875 61.53125 53.78125 63.8125 
Q 48.140625 66.109375 41.796875 66.109375 
Q 29.296875 66.109375 22.65625 58.46875 
Q 16.015625 50.828125 16.015625 36.375 
Q 16.015625 21.96875 22.65625 14.328125 
Q 29.296875 6.6875 41.796875 6.6875 
Q 48.140625 6.6875 53.78125 8.984375 
Q 59.421875 11.28125 64.40625 15.921875 
L 64.40625 5.609375 
Q 59.234375 2.09375 53.4375 0.328125 
Q 47.65625 -1.421875 41.21875 -1.421875 
Q 24.65625 -1.421875 15.125 8.703125 
Q 5.609375 18.84375 5.609375 36.375 
Q 5.609375 53.953125 15.125 64.078125 
Q 24.65625 74.21875 41.21875 74.21875 
Q 47.75 74.21875 53.53125 72.484375 
Q 59.328125 70.75 64.40625 67.28125 
" id="DejaVuSans-43"/>
      <path d="M 53.515625 70.515625 
L 53.515625 60.890625 
Q 47.90625 63.578125 42.921875 64.890625 
Q 37.9375 66.21875 33.296875 66.21875 
Q 25.25 66.21875 20.875 63.09375 
Q 16.5 59.96875 16.5 54.203125 
Q 16.5 49.359375 19.40625 46.890625 
Q 22.3125 44.4375 30.421875 42.921875 
L 36.375 41.703125 
Q 47.40625 39.59375 52.65625 34.296875 
Q 57.90625 29 57.90625 20.125 
Q 57.90625 9.515625 50.796875 4.046875 
Q 43.703125 -1.421875 29.984375 -1.421875 
Q 24.8125 -1.421875 18.96875 -0.25 
Q 13.140625 0.921875 6.890625 3.21875 
L 6.890625 13.375 
Q 12.890625 10.015625 18.65625 8.296875 
Q 24.421875 6.59375 29.984375 6.59375 
Q 38.421875 6.59375 43.015625 9.90625 
Q 47.609375 13.234375 47.609375 19.390625 
Q 47.609375 24.75 44.3125 27.78125 
Q 41.015625 30.8125 33.5 32.328125 
L 27.484375 33.5 
Q 16.453125 35.6875 11.515625 40.375 
Q 6.59375 45.0625 6.59375 53.421875 
Q 6.59375 63.09375 13.40625 68.65625 
Q 20.21875 74.21875 32.171875 74.21875 
Q 37.3125 74.21875 42.625 73.28125 
Q 47.953125 72.359375 53.515625 70.515625 
" id="DejaVuSans-53"/>
      <path d="M 44.390625 34.1875 
Q 47.5625 33.109375 50.5625 29.59375 
Q 53.5625 26.078125 56.59375 19.921875 
L 66.609375 0 
L 56 0 
L 46.6875 18.703125 
Q 43.0625 26.03125 39.671875 28.421875 
Q 36.28125 30.8125 30.421875 30.8125 
L 19.671875 30.8125 
L 19.671875 0 
L 9.8125 0 
L 9.8125 72.90625 
L 32.078125 72.90625 
Q 44.578125 72.90625 50.734375 67.671875 
Q 56.890625 62.453125 56.890625 51.90625 
Q 56.890625 45.015625 53.6875 40.46875 
Q 50.484375 35.9375 44.390625 34.1875 
M 19.671875 64.796875 
L 19.671875 38.921875 
L 32.078125 38.921875 
Q 39.203125 38.921875 42.84375 42.21875 
Q 46.484375 45.515625 46.484375 51.90625 
Q 46.484375 58.296875 42.84375 61.546875 
Q 39.203125 64.796875 32.078125 64.796875 
z
" id="DejaVuSans-52"/>
      <path d="M 31 75.875 
Q 24.46875 64.65625 21.28125 53.65625 
Q 18.109375 42.671875 18.109375 31.390625 
Q 18.109375 20.125 21.3125 9.0625 
Q 24.515625 -2 31 -13.1875 
L 23.1875 -13.1875 
Q 15.875 -1.703125 12.234375 9.375 
Q 8.59375 20.453125 8.59375 31.390625 
Q 8.59375 42.28125 12.203125 53.3125 
Q 15.828125 64.359375 23.1875 75.875 
z
" id="DejaVuSans-28"/>
      <path d="M 19.671875 64.796875 
L 19.671875 37.40625 
L 32.078125 37.40625 
Q 38.96875 37.40625 42.71875 40.96875 
Q 46.484375 44.53125 46.484375 51.125 
Q 46.484375 57.671875 42.71875 61.234375 
Q 38.96875 64.796875 32.078125 64.796875 
z
M 9.8125 72.90625 
L 32.078125 72.90625 
Q 44.34375 72.90625 50.609375 67.359375 
Q 56.890625 61.8125 56.890625 51.125 
Q 56.890625 40.328125 50.609375 34.8125 
Q 44.34375 29.296875 32.078125 29.296875 
L 19.671875 29.296875 
L 19.671875 0 
L 9.8125 0 
z
" id="DejaVuSans-50"/>
      <path d="M 8.6875 72.90625 
L 18.609375 72.90625 
L 18.609375 28.609375 
Q 18.609375 16.890625 22.84375 11.734375 
Q 27.09375 6.59375 36.625 6.59375 
Q 46.09375 6.59375 50.34375 11.734375 
Q 54.59375 16.890625 54.59375 28.609375 
L 54.59375 72.90625 
L 64.5 72.90625 
L 64.5 27.390625 
Q 64.5 13.140625 57.4375 5.859375 
Q 50.390625 -1.421875 36.625 -1.421875 
Q 22.796875 -1.421875 15.734375 5.859375 
Q 8.6875 13.140625 8.6875 27.390625 
z
" id="DejaVuSans-55"/>
     </defs>
     <g transform="translate(184.25078125 278.2765625)scale(0.1 -0.1)">
      <use xlink:href="#DejaVuSans-41"/>
      <use x="68.408203125" xlink:href="#DejaVuSans-55"/>
      <use x="141.6015625" xlink:href="#DejaVuSans-52"/>
      <use x="211.083984375" xlink:href="#DejaVuSans-4f"/>
      <use x="289.794921875" xlink:href="#DejaVuSans-43"/>
      <use x="359.619140625" xlink:href="#DejaVuSans-20"/>
      <use x="391.40625" xlink:href="#DejaVuSans-28"/>
      <use x="430.419921875" xlink:href="#DejaVuSans-50"/>
      <use x="490.72265625" xlink:href="#DejaVuSans-53"/>
      <use x="554.19921875" xlink:href="#DejaVuSans-53"/>
      <use x="617.67578125" xlink:href="#DejaVuSans-4d"/>
      <use x="703.955078125" xlink:href="#DejaVuSans-29"/>
     </g>
    </g>
   </g>
   <g id="matplotlib.axis_2">
    <g id="ytick_1">
     <g id="line2d_26">
      <path clip-path="url(#pce9ba85616)" d="M 109.8 244.621855 
L 333 244.621855 
" style="fill:none;stroke:#000000;stroke-dasharray:1.000000,3.000000;stroke-dashoffset:0.0;stroke-width:0.5;"/>
     </g>
     <g id="line2d_27">
      <defs>
       <path d="M 0 0 
L 4 0 
" id="mee68c53e68" style="stroke:#000000;stroke-width:0.5;"/>
      </defs>
      <g>
       <use style="stroke:#000000;stroke-width:0.5;" x="109.8" xlink:href="#mee68c53e68" y="244.621855022"/>
      </g>
     </g>
     <g id="line2d_28">
      <defs>
       <path d="M 0 0 
L -4 0 
" id="m013c31a508" style="stroke:#000000;stroke-width:0.5;"/>
      </defs>
      <g>
       <use style="stroke:#000000;stroke-width:0.5;" x="333.0" xlink:href="#m013c31a508" y="244.621855022"/>
      </g>
     </g>
     <g id="text_10">
      <!-- 0.55 -->
      <g transform="translate(83.534375 247.381230022)scale(0.1 -0.1)">
       <use xlink:href="#DejaVuSans-30"/>
       <use x="63.623046875" xlink:href="#DejaVuSans-2e"/>
       <use x="95.41015625" xlink:href="#DejaVuSans-35"/>
       <use x="159.033203125" xlink:href="#DejaVuSans-35"/>
      </g>
     </g>
    </g>
    <g id="ytick_2">
     <g id="line2d_29">
      <path clip-path="url(#pce9ba85616)" d="M 109.8 214.171401 
L 333 214.171401 
" style="fill:none;stroke:#000000;stroke-dasharray:1.000000,3.000000;stroke-dashoffset:0.0;stroke-width:0.5;"/>
     </g>
     <g id="line2d_30">
      <g>
       <use style="stroke:#000000;stroke-width:0.5;" x="109.8" xlink:href="#mee68c53e68" y="214.17140113"/>
      </g>
     </g>
     <g id="line2d_31">
      <g>
       <use style="stroke:#000000;stroke-width:0.5;" x="333.0" xlink:href="#m013c31a508" y="214.17140113"/>
      </g>
     </g>
     <g id="text_11">
      <!-- 0.60 -->
      <g transform="translate(83.534375 216.93077613)scale(0.1 -0.1)">
       <use xlink:href="#DejaVuSans-30"/>
       <use x="63.623046875" xlink:href="#DejaVuSans-2e"/>
       <use x="95.41015625" xlink:href="#DejaVuSans-36"/>
       <use x="159.033203125" xlink:href="#DejaVuSans-30"/>
      </g>
     </g>
    </g>
    <g id="ytick_3">
     <g id="line2d_32">
      <path clip-path="url(#pce9ba85616)" d="M 109.8 183.720947 
L 333 183.720947 
" style="fill:none;stroke:#000000;stroke-dasharray:1.000000,3.000000;stroke-dashoffset:0.0;stroke-width:0.5;"/>
     </g>
     <g id="line2d_33">
      <g>
       <use style="stroke:#000000;stroke-width:0.5;" x="109.8" xlink:href="#mee68c53e68" y="183.720947238"/>
      </g>
     </g>
     <g id="line2d_34">
      <g>
       <use style="stroke:#000000;stroke-width:0.5;" x="333.0" xlink:href="#m013c31a508" y="183.720947238"/>
      </g>
     </g>
     <g id="text_12">
      <!-- 0.65 -->
      <g transform="translate(83.534375 186.480322238)scale(0.1 -0.1)">
       <use xlink:href="#DejaVuSans-30"/>
       <use x="63.623046875" xlink:href="#DejaVuSans-2e"/>
       <use x="95.41015625" xlink:href="#DejaVuSans-36"/>
       <use x="159.033203125" xlink:href="#DejaVuSans-35"/>
      </g>
     </g>
    </g>
    <g id="ytick_4">
     <g id="line2d_35">
      <path clip-path="url(#pce9ba85616)" d="M 109.8 153.270493 
L 333 153.270493 
" style="fill:none;stroke:#000000;stroke-dasharray:1.000000,3.000000;stroke-dashoffset:0.0;stroke-width:0.5;"/>
     </g>
     <g id="line2d_36">
      <g>
       <use style="stroke:#000000;stroke-width:0.5;" x="109.8" xlink:href="#mee68c53e68" y="153.270493346"/>
      </g>
     </g>
     <g id="line2d_37">
      <g>
       <use style="stroke:#000000;stroke-width:0.5;" x="333.0" xlink:href="#m013c31a508" y="153.270493346"/>
      </g>
     </g>
     <g id="text_13">
      <!-- 0.70 -->
      <g transform="translate(83.534375 156.029868346)scale(0.1 -0.1)">
       <use xlink:href="#DejaVuSans-30"/>
       <use x="63.623046875" xlink:href="#DejaVuSans-2e"/>
       <use x="95.41015625" xlink:href="#DejaVuSans-37"/>
       <use x="159.033203125" xlink:href="#DejaVuSans-30"/>
      </g>
     </g>
    </g>
    <g id="ytick_5">
     <g id="line2d_38">
      <path clip-path="url(#pce9ba85616)" d="M 109.8 122.820039 
L 333 122.820039 
" style="fill:none;stroke:#000000;stroke-dasharray:1.000000,3.000000;stroke-dashoffset:0.0;stroke-width:0.5;"/>
     </g>
     <g id="line2d_39">
      <g>
       <use style="stroke:#000000;stroke-width:0.5;" x="109.8" xlink:href="#mee68c53e68" y="122.820039455"/>
      </g>
     </g>
     <g id="line2d_40">
      <g>
       <use style="stroke:#000000;stroke-width:0.5;" x="333.0" xlink:href="#m013c31a508" y="122.820039455"/>
      </g>
     </g>
     <g id="text_14">
      <!-- 0.75 -->
      <g transform="translate(83.534375 125.579414455)scale(0.1 -0.1)">
       <use xlink:href="#DejaVuSans-30"/>
       <use x="63.623046875" xlink:href="#DejaVuSans-2e"/>
       <use x="95.41015625" xlink:href="#DejaVuSans-37"/>
       <use x="159.033203125" xlink:href="#DejaVuSans-35"/>
      </g>
     </g>
    </g>
    <g id="ytick_6">
     <g id="line2d_41">
      <path clip-path="url(#pce9ba85616)" d="M 109.8 92.369586 
L 333 92.369586 
" style="fill:none;stroke:#000000;stroke-dasharray:1.000000,3.000000;stroke-dashoffset:0.0;stroke-width:0.5;"/>
     </g>
     <g id="line2d_42">
      <g>
       <use style="stroke:#000000;stroke-width:0.5;" x="109.8" xlink:href="#mee68c53e68" y="92.3695855628"/>
      </g>
     </g>
     <g id="line2d_43">
      <g>
       <use style="stroke:#000000;stroke-width:0.5;" x="333.0" xlink:href="#m013c31a508" y="92.3695855628"/>
      </g>
     </g>
     <g id="text_15">
      <!-- 0.80 -->
      <g transform="translate(83.534375 95.1289605628)scale(0.1 -0.1)">
       <use xlink:href="#DejaVuSans-30"/>
       <use x="63.623046875" xlink:href="#DejaVuSans-2e"/>
       <use x="95.41015625" xlink:href="#DejaVuSans-38"/>
       <use x="159.033203125" xlink:href="#DejaVuSans-30"/>
      </g>
     </g>
    </g>
    <g id="ytick_7">
     <g id="line2d_44">
      <path clip-path="url(#pce9ba85616)" d="M 109.8 61.919132 
L 333 61.919132 
" style="fill:none;stroke:#000000;stroke-dasharray:1.000000,3.000000;stroke-dashoffset:0.0;stroke-width:0.5;"/>
     </g>
     <g id="line2d_45">
      <g>
       <use style="stroke:#000000;stroke-width:0.5;" x="109.8" xlink:href="#mee68c53e68" y="61.9191316709"/>
      </g>
     </g>
     <g id="line2d_46">
      <g>
       <use style="stroke:#000000;stroke-width:0.5;" x="333.0" xlink:href="#m013c31a508" y="61.9191316709"/>
      </g>
     </g>
     <g id="text_16">
      <!-- 0.85 -->
      <g transform="translate(83.534375 64.6785066709)scale(0.1 -0.1)">
       <use xlink:href="#DejaVuSans-30"/>
       <use x="63.623046875" xlink:href="#DejaVuSans-2e"/>
       <use x="95.41015625" xlink:href="#DejaVuSans-38"/>
       <use x="159.033203125" xlink:href="#DejaVuSans-35"/>
      </g>
     </g>
    </g>
    <g id="ytick_8">
     <g id="line2d_47">
      <path clip-path="url(#pce9ba85616)" d="M 109.8 31.468678 
L 333 31.468678 
" style="fill:none;stroke:#000000;stroke-dasharray:1.000000,3.000000;stroke-dashoffset:0.0;stroke-width:0.5;"/>
     </g>
     <g id="line2d_48">
      <g>
       <use style="stroke:#000000;stroke-width:0.5;" x="109.8" xlink:href="#mee68c53e68" y="31.4686777791"/>
      </g>
     </g>
     <g id="line2d_49">
      <g>
       <use style="stroke:#000000;stroke-width:0.5;" x="333.0" xlink:href="#m013c31a508" y="31.4686777791"/>
      </g>
     </g>
     <g id="text_17">
      <!-- 0.90 -->
      <g transform="translate(83.534375 34.2280527791)scale(0.1 -0.1)">
       <use xlink:href="#DejaVuSans-30"/>
       <use x="63.623046875" xlink:href="#DejaVuSans-2e"/>
       <use x="95.41015625" xlink:href="#DejaVuSans-39"/>
       <use x="159.033203125" xlink:href="#DejaVuSans-30"/>
      </g>
     </g>
    </g>
    <g id="text_18">
     <!-- AUROC (PSSM + DNA shape) -->
     <defs>
      <path d="M 46 62.703125 
L 46 35.5 
L 73.1875 35.5 
L 73.1875 27.203125 
L 46 27.203125 
L 46 0 
L 37.796875 0 
L 37.796875 27.203125 
L 10.59375 27.203125 
L 10.59375 35.5 
L 37.796875 35.5 
L 37.796875 62.703125 
z
" id="DejaVuSans-2b"/>
      <path d="M 9.8125 72.90625 
L 23.09375 72.90625 
L 55.421875 11.921875 
L 55.421875 72.90625 
L 64.984375 72.90625 
L 64.984375 0 
L 51.703125 0 
L 19.390625 60.984375 
L 19.390625 0 
L 9.8125 0 
z
" id="DejaVuSans-4e"/>
      <path d="M 19.671875 64.796875 
L 19.671875 8.109375 
L 31.59375 8.109375 
Q 46.6875 8.109375 53.6875 14.9375 
Q 60.6875 21.78125 60.6875 36.53125 
Q 60.6875 51.171875 53.6875 57.984375 
Q 46.6875 64.796875 31.59375 64.796875 
z
M 9.8125 72.90625 
L 30.078125 72.90625 
Q 51.265625 72.90625 61.171875 64.09375 
Q 71.09375 55.28125 71.09375 36.53125 
Q 71.09375 17.671875 61.125 8.828125 
Q 51.171875 0 30.078125 0 
L 9.8125 0 
z
" id="DejaVuSans-44"/>
      <path d="M 54.890625 33.015625 
L 54.890625 0 
L 45.90625 0 
L 45.90625 32.71875 
Q 45.90625 40.484375 42.875 44.328125 
Q 39.84375 48.1875 33.796875 48.1875 
Q 26.515625 48.1875 22.3125 43.546875 
Q 18.109375 38.921875 18.109375 30.90625 
L 18.109375 0 
L 9.078125 0 
L 9.078125 75.984375 
L 18.109375 75.984375 
L 18.109375 46.1875 
Q 21.34375 51.125 25.703125 53.5625 
Q 30.078125 56 35.796875 56 
Q 45.21875 56 50.046875 50.171875 
Q 54.890625 44.34375 54.890625 33.015625 
" id="DejaVuSans-68"/>
      <path d="M 56.203125 29.59375 
L 56.203125 25.203125 
L 14.890625 25.203125 
Q 15.484375 15.921875 20.484375 11.0625 
Q 25.484375 6.203125 34.421875 6.203125 
Q 39.59375 6.203125 44.453125 7.46875 
Q 49.3125 8.734375 54.109375 11.28125 
L 54.109375 2.78125 
Q 49.265625 0.734375 44.1875 -0.34375 
Q 39.109375 -1.421875 33.890625 -1.421875 
Q 20.796875 -1.421875 13.15625 6.1875 
Q 5.515625 13.8125 5.515625 26.8125 
Q 5.515625 40.234375 12.765625 48.109375 
Q 20.015625 56 32.328125 56 
Q 43.359375 56 49.78125 48.890625 
Q 56.203125 41.796875 56.203125 29.59375 
M 47.21875 32.234375 
Q 47.125 39.59375 43.09375 43.984375 
Q 39.0625 48.390625 32.421875 48.390625 
Q 24.90625 48.390625 20.390625 44.140625 
Q 15.875 39.890625 15.1875 32.171875 
z
" id="DejaVuSans-65"/>
      <path d="M 18.109375 8.203125 
L 18.109375 -20.796875 
L 9.078125 -20.796875 
L 9.078125 54.6875 
L 18.109375 54.6875 
L 18.109375 46.390625 
Q 20.953125 51.265625 25.265625 53.625 
Q 29.59375 56 35.59375 56 
Q 45.5625 56 51.78125 48.09375 
Q 58.015625 40.1875 58.015625 27.296875 
Q 58.015625 14.40625 51.78125 6.484375 
Q 45.5625 -1.421875 35.59375 -1.421875 
Q 29.59375 -1.421875 25.265625 0.953125 
Q 20.953125 3.328125 18.109375 8.203125 
M 48.6875 27.296875 
Q 48.6875 37.203125 44.609375 42.84375 
Q 40.53125 48.484375 33.40625 48.484375 
Q 26.265625 48.484375 22.1875 42.84375 
Q 18.109375 37.203125 18.109375 27.296875 
Q 18.109375 17.390625 22.1875 11.75 
Q 26.265625 6.109375 33.40625 6.109375 
Q 40.53125 6.109375 44.609375 11.75 
Q 48.6875 17.390625 48.6875 27.296875 
" id="DejaVuSans-70"/>
      <path d="M 44.28125 53.078125 
L 44.28125 44.578125 
Q 40.484375 46.53125 36.375 47.5 
Q 32.28125 48.484375 27.875 48.484375 
Q 21.1875 48.484375 17.84375 46.4375 
Q 14.5 44.390625 14.5 40.28125 
Q 14.5 37.15625 16.890625 35.375 
Q 19.28125 33.59375 26.515625 31.984375 
L 29.59375 31.296875 
Q 39.15625 29.25 43.1875 25.515625 
Q 47.21875 21.78125 47.21875 15.09375 
Q 47.21875 7.46875 41.1875 3.015625 
Q 35.15625 -1.421875 24.609375 -1.421875 
Q 20.21875 -1.421875 15.453125 -0.5625 
Q 10.6875 0.296875 5.421875 2 
L 5.421875 11.28125 
Q 10.40625 8.6875 15.234375 7.390625 
Q 20.0625 6.109375 24.8125 6.109375 
Q 31.15625 6.109375 34.5625 8.28125 
Q 37.984375 10.453125 37.984375 14.40625 
Q 37.984375 18.0625 35.515625 20.015625 
Q 33.0625 21.96875 24.703125 23.78125 
L 21.578125 24.515625 
Q 13.234375 26.265625 9.515625 29.90625 
Q 5.8125 33.546875 5.8125 39.890625 
Q 5.8125 47.609375 11.28125 51.796875 
Q 16.75 56 26.8125 56 
Q 31.78125 56 36.171875 55.265625 
Q 40.578125 54.546875 44.28125 53.078125 
" id="DejaVuSans-73"/>
      <path d="M 34.28125 27.484375 
Q 23.390625 27.484375 19.1875 25 
Q 14.984375 22.515625 14.984375 16.5 
Q 14.984375 11.71875 18.140625 8.90625 
Q 21.296875 6.109375 26.703125 6.109375 
Q 34.1875 6.109375 38.703125 11.40625 
Q 43.21875 16.703125 43.21875 25.484375 
L 43.21875 27.484375 
z
M 52.203125 31.203125 
L 52.203125 0 
L 43.21875 0 
L 43.21875 8.296875 
Q 40.140625 3.328125 35.546875 0.953125 
Q 30.953125 -1.421875 24.3125 -1.421875 
Q 15.921875 -1.421875 10.953125 3.296875 
Q 6 8.015625 6 15.921875 
Q 6 25.140625 12.171875 29.828125 
Q 18.359375 34.515625 30.609375 34.515625 
L 43.21875 34.515625 
L 43.21875 35.40625 
Q 43.21875 41.609375 39.140625 45 
Q 35.0625 48.390625 27.6875 48.390625 
Q 23 48.390625 18.546875 47.265625 
Q 14.109375 46.140625 10.015625 43.890625 
L 10.015625 52.203125 
Q 14.9375 54.109375 19.578125 55.046875 
Q 24.21875 56 28.609375 56 
Q 40.484375 56 46.34375 49.84375 
Q 52.203125 43.703125 52.203125 31.203125 
" id="DejaVuSans-61"/>
     </defs>
     <g transform="translate(76.4546875 212.60546875)rotate(-90.0)scale(0.1 -0.1)">
      <use xlink:href="#DejaVuSans-41"/>
      <use x="68.408203125" xlink:href="#DejaVuSans-55"/>
      <use x="141.6015625" xlink:href="#DejaVuSans-52"/>
      <use x="211.083984375" xlink:href="#DejaVuSans-4f"/>
      <use x="289.794921875" xlink:href="#DejaVuSans-43"/>
      <use x="359.619140625" xlink:href="#DejaVuSans-20"/>
      <use x="391.40625" xlink:href="#DejaVuSans-28"/>
      <use x="430.419921875" xlink:href="#DejaVuSans-50"/>
      <use x="490.72265625" xlink:href="#DejaVuSans-53"/>
      <use x="554.19921875" xlink:href="#DejaVuSans-53"/>
      <use x="617.67578125" xlink:href="#DejaVuSans-4d"/>
      <use x="703.955078125" xlink:href="#DejaVuSans-20"/>
      <use x="735.7421875" xlink:href="#DejaVuSans-2b"/>
      <use x="819.53125" xlink:href="#DejaVuSans-20"/>
      <use x="851.318359375" xlink:href="#DejaVuSans-44"/>
      <use x="928.3203125" xlink:href="#DejaVuSans-4e"/>
      <use x="1003.125" xlink:href="#DejaVuSans-41"/>
      <use x="1071.53320312" xlink:href="#DejaVuSans-20"/>
      <use x="1103.3203125" xlink:href="#DejaVuSans-73"/>
      <use x="1155.41992188" xlink:href="#DejaVuSans-68"/>
      <use x="1218.79882812" xlink:href="#DejaVuSans-61"/>
      <use x="1280.078125" xlink:href="#DejaVuSans-70"/>
      <use x="1343.5546875" xlink:href="#DejaVuSans-65"/>
      <use x="1405.078125" xlink:href="#DejaVuSans-29"/>
     </g>
    </g>
   </g>
   <g id="patch_7">
    <path d="M 119.599002 180.841326 
Q 129.086519 187.003154 137.636399 192.556017 
" style="fill:none;stroke:#000000;stroke-linecap:round;"/>
    <path d="M 135.371156 188.700026 
L 137.636399 192.556017 
L 133.19246 192.054617 
" style="fill:none;stroke:#000000;stroke-linecap:round;"/>
   </g>
   <g id="text_19">
    <g id="patch_8">
     <path d="M 83.759829 179.253759 
L 120.250454 179.253759 
Q 125.250454 179.253759 125.250454 174.253759 
L 125.250454 164.575634 
Q 125.250454 159.575634 120.250454 159.575634 
L 83.759829 159.575634 
Q 78.759829 159.575634 78.759829 164.575634 
L 78.759829 174.253759 
Q 78.759829 179.253759 83.759829 179.253759 
z
" style="fill:#ffff00;opacity:0.5;stroke:#000000;stroke-linejoin:miter;"/>
    </g>
    <!-- AGL-15 -->
    <defs>
     <path d="M 12.40625 8.296875 
L 28.515625 8.296875 
L 28.515625 63.921875 
L 10.984375 60.40625 
L 10.984375 69.390625 
L 28.421875 72.90625 
L 38.28125 72.90625 
L 38.28125 8.296875 
L 54.390625 8.296875 
L 54.390625 0 
L 12.40625 0 
z
" id="DejaVuSans-31"/>
     <path d="M 59.515625 10.40625 
L 59.515625 29.984375 
L 43.40625 29.984375 
L 43.40625 38.09375 
L 69.28125 38.09375 
L 69.28125 6.78125 
Q 63.578125 2.734375 56.6875 0.65625 
Q 49.8125 -1.421875 42 -1.421875 
Q 24.90625 -1.421875 15.25 8.5625 
Q 5.609375 18.5625 5.609375 36.375 
Q 5.609375 54.25 15.25 64.234375 
Q 24.90625 74.21875 42 74.21875 
Q 49.125 74.21875 55.546875 72.453125 
Q 61.96875 70.703125 67.390625 67.28125 
L 67.390625 56.78125 
Q 61.921875 61.421875 55.765625 63.765625 
Q 49.609375 66.109375 42.828125 66.109375 
Q 29.4375 66.109375 22.71875 58.640625 
Q 16.015625 51.171875 16.015625 36.375 
Q 16.015625 21.625 22.71875 14.15625 
Q 29.4375 6.6875 42.828125 6.6875 
Q 48.046875 6.6875 52.140625 7.59375 
Q 56.25 8.5 59.515625 10.40625 
" id="DejaVuSans-47"/>
     <path d="M 4.890625 31.390625 
L 31.203125 31.390625 
L 31.203125 23.390625 
L 4.890625 23.390625 
z
" id="DejaVuSans-2d"/>
     <path d="M 9.8125 72.90625 
L 19.671875 72.90625 
L 19.671875 8.296875 
L 55.171875 8.296875 
L 55.171875 0 
L 9.8125 0 
z
" id="DejaVuSans-4c"/>
    </defs>
    <g transform="translate(83.7598288918 172.17407174)scale(0.1 -0.1)">
     <use xlink:href="#DejaVuSans-41"/>
     <use x="68.392578125" xlink:href="#DejaVuSans-47"/>
     <use x="145.8828125" xlink:href="#DejaVuSans-4c"/>
     <use x="201.580078125" xlink:href="#DejaVuSans-2d"/>
     <use x="237.6640625" xlink:href="#DejaVuSans-31"/>
     <use x="301.287109375" xlink:href="#DejaVuSans-35"/>
    </g>
   </g>
   <g id="patch_9">
    <path d="M 126.142143 191.900721 
Q 133.493935 198.066615 139.989092 203.514055 
" style="fill:none;stroke:#000000;stroke-linecap:round;"/>
    <path d="M 138.20951 199.411241 
L 139.989092 203.514055 
L 135.639091 202.476033 
" style="fill:none;stroke:#000000;stroke-linecap:round;"/>
   </g>
   <g id="text_20">
    <g id="patch_10">
     <path d="M 103.14491 190.517382 
L 122.377723 190.517382 
Q 127.377723 190.517382 127.377723 185.517382 
L 127.377723 175.839257 
Q 127.377723 170.839257 122.377723 170.839257 
L 103.14491 170.839257 
Q 98.14491 170.839257 98.14491 175.839257 
L 98.14491 185.517382 
Q 98.14491 190.517382 103.14491 190.517382 
z
" style="fill:#ffff00;opacity:0.5;stroke:#000000;stroke-linejoin:miter;"/>
    </g>
    <!-- AP3 -->
    <defs>
     <path d="M 40.578125 39.3125 
Q 47.65625 37.796875 51.625 33 
Q 55.609375 28.21875 55.609375 21.1875 
Q 55.609375 10.40625 48.1875 4.484375 
Q 40.765625 -1.421875 27.09375 -1.421875 
Q 22.515625 -1.421875 17.65625 -0.515625 
Q 12.796875 0.390625 7.625 2.203125 
L 7.625 11.71875 
Q 11.71875 9.328125 16.59375 8.109375 
Q 21.484375 6.890625 26.8125 6.890625 
Q 36.078125 6.890625 40.9375 10.546875 
Q 45.796875 14.203125 45.796875 21.1875 
Q 45.796875 27.640625 41.28125 31.265625 
Q 36.765625 34.90625 28.71875 34.90625 
L 20.21875 34.90625 
L 20.21875 43.015625 
L 29.109375 43.015625 
Q 36.375 43.015625 40.234375 45.921875 
Q 44.09375 48.828125 44.09375 54.296875 
Q 44.09375 59.90625 40.109375 62.90625 
Q 36.140625 65.921875 28.71875 65.921875 
Q 24.65625 65.921875 20.015625 65.03125 
Q 15.375 64.15625 9.8125 62.3125 
L 9.8125 71.09375 
Q 15.4375 72.65625 20.34375 73.4375 
Q 25.25 74.21875 29.59375 74.21875 
Q 40.828125 74.21875 47.359375 69.109375 
Q 53.90625 64.015625 53.90625 55.328125 
Q 53.90625 49.265625 50.4375 45.09375 
Q 46.96875 40.921875 40.578125 39.3125 
" id="DejaVuSans-33"/>
    </defs>
    <g transform="translate(103.144910101 183.437694634)scale(0.1 -0.1)">
     <use xlink:href="#DejaVuSans-41"/>
     <use x="68.408203125" xlink:href="#DejaVuSans-50"/>
     <use x="128.7109375" xlink:href="#DejaVuSans-33"/>
    </g>
   </g>
   <g id="patch_11">
    <path d="M 248.944318 45.576498 
Q 256.20764 51.764998 262.619937 57.228407 
" style="fill:none;stroke:#000000;stroke-linecap:round;"/>
    <path d="M 260.8723 53.111884 
L 262.619937 57.228407 
L 258.278136 56.156603 
" style="fill:none;stroke:#000000;stroke-linecap:round;"/>
   </g>
   <g id="text_21">
    <g id="patch_12">
     <path d="M 226.686924 44.250454 
L 244.993174 44.250454 
Q 249.993174 44.250454 249.993174 39.250454 
L 249.993174 29.572329 
Q 249.993174 24.572329 244.993174 24.572329 
L 226.686924 24.572329 
Q 221.686924 24.572329 221.686924 29.572329 
L 221.686924 39.250454 
Q 221.686924 44.250454 226.686924 44.250454 
z
" style="fill:#ffff00;opacity:0.5;stroke:#000000;stroke-linejoin:miter;"/>
    </g>
    <!-- FLC -->
    <defs>
     <path d="M 9.8125 72.90625 
L 51.703125 72.90625 
L 51.703125 64.59375 
L 19.671875 64.59375 
L 19.671875 43.109375 
L 48.578125 43.109375 
L 48.578125 34.8125 
L 19.671875 34.8125 
L 19.671875 0 
L 9.8125 0 
z
" id="DejaVuSans-46"/>
    </defs>
    <g transform="translate(226.686924296 37.1707663918)scale(0.1 -0.1)">
     <use xlink:href="#DejaVuSans-46"/>
     <use x="57.51953125" xlink:href="#DejaVuSans-4c"/>
     <use x="113.232421875" xlink:href="#DejaVuSans-43"/>
    </g>
   </g>
   <g id="patch_13">
    <path d="M 159.859116 167.459904 
Q 166.385511 174.079364 172.126953 179.902677 
" style="fill:none;stroke:#000000;stroke-linecap:round;"/>
    <path d="M 170.742809 175.650131 
L 172.126953 179.902677 
L 167.89443 178.458464 
" style="fill:none;stroke:#000000;stroke-linecap:round;"/>
   </g>
   <g id="text_22">
    <g id="patch_14">
     <path d="M 145.33508 167.121689 
L 154.314768 167.121689 
Q 159.314768 167.121689 159.314768 162.121689 
L 159.314768 152.443564 
Q 159.314768 147.443564 154.314768 147.443564 
L 145.33508 147.443564 
Q 140.33508 147.443564 140.33508 152.443564 
L 140.33508 162.121689 
Q 140.33508 167.121689 145.33508 167.121689 
z
" style="fill:#ffff00;opacity:0.5;stroke:#000000;stroke-linejoin:miter;"/>
    </g>
    <!-- PI -->
    <defs>
     <path d="M 9.8125 72.90625 
L 19.671875 72.90625 
L 19.671875 0 
L 9.8125 0 
z
" id="DejaVuSans-49"/>
    </defs>
    <g transform="translate(145.335080152 160.0420019)scale(0.1 -0.1)">
     <use xlink:href="#DejaVuSans-50"/>
     <use x="60.302734375" xlink:href="#DejaVuSans-49"/>
    </g>
   </g>
   <g id="patch_15">
    <path d="M 159.390462 136.908077 
Q 167.3366 142.9756 174.394137 148.364604 
" style="fill:none;stroke:#000000;stroke-linecap:round;"/>
    <path d="M 172.428753 144.347482 
L 174.394137 148.364604 
L 170.001209 147.526638 
" style="fill:none;stroke:#000000;stroke-linecap:round;"/>
   </g>
   <g id="text_23">
    <g id="patch_16">
     <path d="M 131.813231 135.257116 
L 156.872606 135.257116 
Q 161.872606 135.257116 161.872606 130.257116 
L 161.872606 120.578991 
Q 161.872606 115.578991 156.872606 115.578991 
L 131.813231 115.578991 
Q 126.813231 115.578991 126.813231 120.578991 
L 126.813231 130.257116 
Q 126.813231 135.257116 131.813231 135.257116 
z
" style="fill:#ffff00;opacity:0.5;stroke:#000000;stroke-linejoin:miter;"/>
    </g>
    <!-- SEP3 -->
    <defs>
     <path d="M 9.8125 72.90625 
L 55.90625 72.90625 
L 55.90625 64.59375 
L 19.671875 64.59375 
L 19.671875 43.015625 
L 54.390625 43.015625 
L 54.390625 34.71875 
L 19.671875 34.71875 
L 19.671875 8.296875 
L 56.78125 8.296875 
L 56.78125 0 
L 9.8125 0 
z
" id="DejaVuSans-45"/>
    </defs>
    <g transform="translate(131.813230778 128.177428929)scale(0.1 -0.1)">
     <use xlink:href="#DejaVuSans-53"/>
     <use x="63.4765625" xlink:href="#DejaVuSans-45"/>
     <use x="126.66015625" xlink:href="#DejaVuSans-50"/>
     <use x="186.962890625" xlink:href="#DejaVuSans-33"/>
    </g>
   </g>
   <g id="patch_17">
    <path d="M 230.21577 64.38545 
Q 238.474424 70.457687 245.832317 75.867632 
" style="fill:none;stroke:#000000;stroke-linecap:round;"/>
    <path d="M 243.794399 71.886817 
L 245.832317 75.867632 
L 241.424914 75.109477 
" style="fill:none;stroke:#000000;stroke-linecap:round;"/>
   </g>
   <g id="text_24">
    <g id="patch_18">
     <path d="M 200.780895 62.716218 
L 228.34652 62.716218 
Q 233.34652 62.716218 233.34652 57.716218 
L 233.34652 48.038093 
Q 233.34652 43.038093 228.34652 43.038093 
L 200.780895 43.038093 
Q 195.780895 43.038093 195.780895 48.038093 
L 195.780895 57.716218 
Q 195.780895 62.716218 200.780895 62.716218 
z
" style="fill:#ffff00;opacity:0.5;stroke:#000000;stroke-linejoin:miter;"/>
    </g>
    <!-- SOC1 -->
    <g transform="translate(200.780895163 55.6365306409)scale(0.1 -0.1)">
     <use xlink:href="#DejaVuSans-53"/>
     <use x="63.4765625" xlink:href="#DejaVuSans-4f"/>
     <use x="142.1875" xlink:href="#DejaVuSans-43"/>
     <use x="212.01171875" xlink:href="#DejaVuSans-31"/>
    </g>
   </g>
   <g id="patch_19">
    <path d="M 200.923177 154.997207 
Q 208.273224 161.163101 214.76672 166.610441 
" style="fill:none;stroke:#000000;stroke-linecap:round;"/>
    <path d="M 212.987617 162.507419 
L 214.76672 166.610441 
L 210.41684 165.57191 
" style="fill:none;stroke:#000000;stroke-linecap:round;"/>
   </g>
   <g id="text_25">
    <g id="patch_20">
     <path d="M 177.936152 153.613868 
L 197.154902 153.613868 
Q 202.154902 153.613868 202.154902 148.613868 
L 202.154902 138.935743 
Q 202.154902 133.935743 197.154902 133.935743 
L 177.936152 133.935743 
Q 172.936152 133.935743 172.936152 138.935743 
L 172.936152 148.613868 
Q 172.936152 153.613868 177.936152 153.613868 
z
" style="fill:#ffff00;opacity:0.5;stroke:#000000;stroke-linejoin:miter;"/>
    </g>
    <!-- SVP -->
    <defs>
     <path d="M 28.609375 0 
L 0.78125 72.90625 
L 11.078125 72.90625 
L 34.1875 11.53125 
L 57.328125 72.90625 
L 67.578125 72.90625 
L 39.796875 0 
z
" id="DejaVuSans-56"/>
    </defs>
    <g transform="translate(177.936152223 146.534180553)scale(0.1 -0.1)">
     <use xlink:href="#DejaVuSans-53"/>
     <use x="63.4765625" xlink:href="#DejaVuSans-56"/>
     <use x="131.884765625" xlink:href="#DejaVuSans-50"/>
    </g>
   </g>
  </g>
 </g>
 <defs>
  <clipPath id="pce9ba85616">
   <rect height="223.2" width="223.2" x="109.8" y="28.8"/>
  </clipPath>
 </defs>
</svg>
