<?xml version="1.0" encoding="utf-8" standalone="no"?>
<!DOCTYPE svg PUBLIC "-//W3C//DTD SVG 1.1//EN"
  "http://www.w3.org/Graphics/SVG/1.1/DTD/svg11.dtd">
<!-- Created with matplotlib (http://matplotlib.org/) -->
<svg height="288pt" version="1.1" viewBox="0 0 432 288" width="432pt" xmlns="http://www.w3.org/2000/svg" xmlns:xlink="http://www.w3.org/1999/xlink">
 <defs>
  <style type="text/css">
*{stroke-linecap:butt;stroke-linejoin:round;stroke-miterlimit:4;}
  </style>
 </defs>
 <g id="figure_1">
  <g id="patch_1">
   <path d="M 0 288 
L 432 288 
L 432 0 
L 0 0 
z
" style="fill:#ffffff;"/>
  </g>
  <g id="axes_1">
   <g id="patch_2">
    <path d="M 109.8 252 
L 333 252 
L 333 28.8 
L 109.8 28.8 
L 109.8 252 
z
" style="fill:none;"/>
   </g>
   <g id="line2d_1">
    <path clip-path="url(#p27bf4db0c2)" d="M 109.8 246.09264 
L 110.359398 238.3724 
L 110.918797 235.12856 
L 111.478195 234.32752 
L 112.037594 234.3052 
L 112.596992 231.00928 
L 114.275188 230.362 
L 114.834586 229.70232 
L 116.512782 229.11208 
L 119.309774 228.626 
L 119.869173 228.192 
L 120.428571 228.03824 
L 120.98797 227.6712 
L 122.666165 227.42568 
L 124.903759 227.17768 
L 126.022556 227.02392 
L 126.581955 226.86768 
L 128.819549 226.60232 
L 130.497744 226.37912 
L 131.057143 226.02696 
L 134.972932 225.64752 
L 136.091729 225.63512 
L 137.210526 225.36976 
L 142.245113 225.05232 
L 143.36391 224.95064 
L 143.923308 224.91592 
L 145.042105 224.5712 
L 147.279699 224.15208 
L 160.145865 223.45272 
L 165.73985 223.22456 
L 172.452632 222.91208 
L 178.606015 222.77816 
L 180.284211 222.62688 
L 181.962406 222.55744 
L 198.184962 221.93992 
L 203.778947 221.78616 
L 220.001504 220.72472 
L 221.120301 220.3428 
L 221.679699 220.31304 
L 222.239098 220.01544 
L 223.357895 219.90384 
L 226.154887 219.70792 
L 226.714286 219.50952 
L 227.273684 219.48224 
L 228.392481 219.14 
L 228.95188 219.14 
L 229.511278 218.9044 
L 232.308271 218.5448 
L 233.427068 217.69168 
L 235.664662 217.41144 
L 236.783459 217.17336 
L 238.461654 216.66496 
L 240.699248 216.5856 
L 243.496241 216.14168 
L 244.055639 215.89368 
L 245.733835 215.69528 
L 246.293233 215.65808 
L 246.852632 215.4572 
L 247.971429 215.29848 
L 249.090226 215.0604 
L 250.768421 215.01328 
L 251.32782 214.82232 
L 252.446617 214.76776 
L 259.159398 213.42112 
L 259.718797 213.04416 
L 260.278195 212.84328 
L 261.396992 212.77632 
L 261.956391 212.57544 
L 262.515789 212.5308 
L 263.075188 212.19104 
L 264.193985 212.1216 
L 265.87218 212.08688 
L 266.431579 211.18168 
L 266.990977 211.10232 
L 267.550376 210.82208 
L 269.78797 210.646 
L 270.347368 210.14504 
L 271.466165 209.98384 
L 272.025564 209.93672 
L 272.584962 209.39608 
L 273.144361 209.31672 
L 274.263158 208.90256 
L 274.822556 208.90008 
L 275.381955 208.65704 
L 277.06015 208.52808 
L 278.178947 208.15112 
L 278.738346 207.93288 
L 279.297744 207.856 
L 279.857143 207.18144 
L 281.535338 206.99544 
L 282.654135 205.87696 
L 283.772932 205.59424 
L 284.332331 205.06848 
L 285.451128 204.94696 
L 286.010526 204.756 
L 287.129323 203.22584 
L 287.688722 202.87864 
L 289.926316 202.6232 
L 291.045113 202.276 
L 292.16391 202.13216 
L 293.282707 201.69072 
L 294.401504 199.56536 
L 294.960902 199.47856 
L 295.520301 198.47664 
L 296.079699 198.4568 
L 296.639098 198.32536 
L 297.198496 197.91616 
L 297.757895 197.69792 
L 298.876692 197.564 
L 299.995489 196.9812 
L 300.554887 196.55712 
L 301.114286 194.25568 
L 301.673684 190.85312 
L 302.233083 190.03472 
L 302.792481 189.50648 
L 303.35188 189.44448 
L 303.911278 189.0824 
L 304.470677 188.93856 
L 305.030075 188.5864 
L 305.589474 188.01848 
L 306.148872 187.8548 
L 306.708271 186.98432 
L 307.267669 186.94216 
L 307.827068 186.1808 
L 308.386466 186.03944 
L 308.945865 185.52856 
L 309.505263 185.48392 
L 310.064662 183.47016 
L 310.62406 183.1676 
L 311.183459 183.02376 
L 312.302256 181.43656 
L 312.861654 181.30512 
L 313.421053 177.8852 
L 313.980451 176.54848 
L 314.53985 174.60664 
L 315.658647 174.30656 
L 316.777444 173.07152 
L 317.336842 172.9252 
L 317.896241 170.45016 
L 318.455639 165.32152 
L 319.574436 162.98536 
L 320.133835 162.96056 
L 320.693233 161.9512 
L 321.252632 161.52216 
L 321.81203 160.0416 
L 322.930827 158.90576 
L 323.490226 158.30808 
L 324.049624 158.13944 
L 324.609023 155.08904 
L 325.168421 149.71984 
L 325.72782 149.44704 
L 326.287218 147.37624 
L 327.406015 145.45424 
L 327.965414 140.21152 
L 328.524812 136.27576 
L 329.084211 127.97024 
L 329.643609 123.38472 
L 330.203008 116.85984 
L 331.321805 107.81776 
L 331.881203 72.94648 
L 333 29.81928 
L 333 29.81928 
" style="fill:none;stroke:#0000ff;stroke-linecap:square;"/>
   </g>
   <g id="patch_3">
    <path d="M 109.8 28.8 
L 333 28.8 
" style="fill:none;stroke:#000000;stroke-linecap:square;stroke-linejoin:miter;"/>
   </g>
   <g id="patch_4">
    <path d="M 333 252 
L 333 28.8 
" style="fill:none;stroke:#000000;stroke-linecap:square;stroke-linejoin:miter;"/>
   </g>
   <g id="patch_5">
    <path d="M 109.8 252 
L 333 252 
" style="fill:none;stroke:#000000;stroke-linecap:square;stroke-linejoin:miter;"/>
   </g>
   <g id="patch_6">
    <path d="M 109.8 252 
L 109.8 28.8 
" style="fill:none;stroke:#000000;stroke-linecap:square;stroke-linejoin:miter;"/>
   </g>
   <g id="matplotlib.axis_1">
    <g id="xtick_1">
     <g id="line2d_2">
      <path clip-path="url(#p27bf4db0c2)" d="M 109.8 252 
L 109.8 28.8 
" style="fill:none;stroke:#000000;stroke-dasharray:1.000000,3.000000;stroke-dashoffset:0.0;stroke-width:0.5;"/>
     </g>
     <g id="line2d_3">
      <defs>
       <path d="M 0 0 
L 0 -4 
" id="mf9d9ab62e8" style="stroke:#000000;stroke-width:0.5;"/>
      </defs>
      <g>
       <use style="stroke:#000000;stroke-width:0.5;" x="109.8" xlink:href="#mf9d9ab62e8" y="252.0"/>
      </g>
     </g>
     <g id="line2d_4">
      <defs>
       <path d="M 0 0 
L 0 4 
" id="mc152dbf499" style="stroke:#000000;stroke-width:0.5;"/>
      </defs>
      <g>
       <use style="stroke:#000000;stroke-width:0.5;" x="109.8" xlink:href="#mc152dbf499" y="28.8"/>
      </g>
     </g>
    </g>
    <g id="xtick_2">
     <g id="line2d_5">
      <path clip-path="url(#p27bf4db0c2)" d="M 137.769925 252 
L 137.769925 28.8 
" style="fill:none;stroke:#000000;stroke-dasharray:1.000000,3.000000;stroke-dashoffset:0.0;stroke-width:0.5;"/>
     </g>
     <g id="line2d_6">
      <g>
       <use style="stroke:#000000;stroke-width:0.5;" x="137.769924812" xlink:href="#mf9d9ab62e8" y="252.0"/>
      </g>
     </g>
     <g id="line2d_7">
      <g>
       <use style="stroke:#000000;stroke-width:0.5;" x="137.769924812" xlink:href="#mc152dbf499" y="28.8"/>
      </g>
     </g>
    </g>
    <g id="xtick_3">
     <g id="line2d_8">
      <path clip-path="url(#p27bf4db0c2)" d="M 165.73985 252 
L 165.73985 28.8 
" style="fill:none;stroke:#000000;stroke-dasharray:1.000000,3.000000;stroke-dashoffset:0.0;stroke-width:0.5;"/>
     </g>
     <g id="line2d_9">
      <g>
       <use style="stroke:#000000;stroke-width:0.5;" x="165.739849624" xlink:href="#mf9d9ab62e8" y="252.0"/>
      </g>
     </g>
     <g id="line2d_10">
      <g>
       <use style="stroke:#000000;stroke-width:0.5;" x="165.739849624" xlink:href="#mc152dbf499" y="28.8"/>
      </g>
     </g>
    </g>
    <g id="xtick_4">
     <g id="line2d_11">
      <path clip-path="url(#p27bf4db0c2)" d="M 193.709774 252 
L 193.709774 28.8 
" style="fill:none;stroke:#000000;stroke-dasharray:1.000000,3.000000;stroke-dashoffset:0.0;stroke-width:0.5;"/>
     </g>
     <g id="line2d_12">
      <g>
       <use style="stroke:#000000;stroke-width:0.5;" x="193.709774436" xlink:href="#mf9d9ab62e8" y="252.0"/>
      </g>
     </g>
     <g id="line2d_13">
      <g>
       <use style="stroke:#000000;stroke-width:0.5;" x="193.709774436" xlink:href="#mc152dbf499" y="28.8"/>
      </g>
     </g>
    </g>
    <g id="xtick_5">
     <g id="line2d_14">
      <path clip-path="url(#p27bf4db0c2)" d="M 221.679699 252 
L 221.679699 28.8 
" style="fill:none;stroke:#000000;stroke-dasharray:1.000000,3.000000;stroke-dashoffset:0.0;stroke-width:0.5;"/>
     </g>
     <g id="line2d_15">
      <g>
       <use style="stroke:#000000;stroke-width:0.5;" x="221.679699248" xlink:href="#mf9d9ab62e8" y="252.0"/>
      </g>
     </g>
     <g id="line2d_16">
      <g>
       <use style="stroke:#000000;stroke-width:0.5;" x="221.679699248" xlink:href="#mc152dbf499" y="28.8"/>
      </g>
     </g>
    </g>
    <g id="xtick_6">
     <g id="line2d_17">
      <path clip-path="url(#p27bf4db0c2)" d="M 249.649624 252 
L 249.649624 28.8 
" style="fill:none;stroke:#000000;stroke-dasharray:1.000000,3.000000;stroke-dashoffset:0.0;stroke-width:0.5;"/>
     </g>
     <g id="line2d_18">
      <g>
       <use style="stroke:#000000;stroke-width:0.5;" x="249.64962406" xlink:href="#mf9d9ab62e8" y="252.0"/>
      </g>
     </g>
     <g id="line2d_19">
      <g>
       <use style="stroke:#000000;stroke-width:0.5;" x="249.64962406" xlink:href="#mc152dbf499" y="28.8"/>
      </g>
     </g>
    </g>
    <g id="xtick_7">
     <g id="line2d_20">
      <path clip-path="url(#p27bf4db0c2)" d="M 277.619549 252 
L 277.619549 28.8 
" style="fill:none;stroke:#000000;stroke-dasharray:1.000000,3.000000;stroke-dashoffset:0.0;stroke-width:0.5;"/>
     </g>
     <g id="line2d_21">
      <g>
       <use style="stroke:#000000;stroke-width:0.5;" x="277.619548872" xlink:href="#mf9d9ab62e8" y="252.0"/>
      </g>
     </g>
     <g id="line2d_22">
      <g>
       <use style="stroke:#000000;stroke-width:0.5;" x="277.619548872" xlink:href="#mc152dbf499" y="28.8"/>
      </g>
     </g>
    </g>
    <g id="xtick_8">
     <g id="line2d_23">
      <path clip-path="url(#p27bf4db0c2)" d="M 305.589474 252 
L 305.589474 28.8 
" style="fill:none;stroke:#000000;stroke-dasharray:1.000000,3.000000;stroke-dashoffset:0.0;stroke-width:0.5;"/>
     </g>
     <g id="line2d_24">
      <g>
       <use style="stroke:#000000;stroke-width:0.5;" x="305.589473684" xlink:href="#mf9d9ab62e8" y="252.0"/>
      </g>
     </g>
     <g id="line2d_25">
      <g>
       <use style="stroke:#000000;stroke-width:0.5;" x="305.589473684" xlink:href="#mc152dbf499" y="28.8"/>
      </g>
     </g>
    </g>
    <g id="text_1">
     <!-- 400 data sets -->
     <defs>
      <path d="M 31.78125 66.40625 
Q 24.171875 66.40625 20.328125 58.90625 
Q 16.5 51.421875 16.5 36.375 
Q 16.5 21.390625 20.328125 13.890625 
Q 24.171875 6.390625 31.78125 6.390625 
Q 39.453125 6.390625 43.28125 13.890625 
Q 47.125 21.390625 47.125 36.375 
Q 47.125 51.421875 43.28125 58.90625 
Q 39.453125 66.40625 31.78125 66.40625 
M 31.78125 74.21875 
Q 44.046875 74.21875 50.515625 64.515625 
Q 56.984375 54.828125 56.984375 36.375 
Q 56.984375 17.96875 50.515625 8.265625 
Q 44.046875 -1.421875 31.78125 -1.421875 
Q 19.53125 -1.421875 13.0625 8.265625 
Q 6.59375 17.96875 6.59375 36.375 
Q 6.59375 54.828125 13.0625 64.515625 
Q 19.53125 74.21875 31.78125 74.21875 
" id="DejaVuSans-30"/>
      <path id="DejaVuSans-20"/>
      <path d="M 37.796875 64.3125 
L 12.890625 25.390625 
L 37.796875 25.390625 
z
M 35.203125 72.90625 
L 47.609375 72.90625 
L 47.609375 25.390625 
L 58.015625 25.390625 
L 58.015625 17.1875 
L 47.609375 17.1875 
L 47.609375 0 
L 37.796875 0 
L 37.796875 17.1875 
L 4.890625 17.1875 
L 4.890625 26.703125 
z
" id="DejaVuSans-34"/>
      <path d="M 18.3125 70.21875 
L 18.3125 54.6875 
L 36.8125 54.6875 
L 36.8125 47.703125 
L 18.3125 47.703125 
L 18.3125 18.015625 
Q 18.3125 11.328125 20.140625 9.421875 
Q 21.96875 7.515625 27.59375 7.515625 
L 36.8125 7.515625 
L 36.8125 0 
L 27.59375 0 
Q 17.1875 0 13.234375 3.875 
Q 9.28125 7.765625 9.28125 18.015625 
L 9.28125 47.703125 
L 2.6875 47.703125 
L 2.6875 54.6875 
L 9.28125 54.6875 
L 9.28125 70.21875 
z
" id="DejaVuSans-74"/>
      <path d="M 45.40625 46.390625 
L 45.40625 75.984375 
L 54.390625 75.984375 
L 54.390625 0 
L 45.40625 0 
L 45.40625 8.203125 
Q 42.578125 3.328125 38.25 0.953125 
Q 33.9375 -1.421875 27.875 -1.421875 
Q 17.96875 -1.421875 11.734375 6.484375 
Q 5.515625 14.40625 5.515625 27.296875 
Q 5.515625 40.1875 11.734375 48.09375 
Q 17.96875 56 27.875 56 
Q 33.9375 56 38.25 53.625 
Q 42.578125 51.265625 45.40625 46.390625 
M 14.796875 27.296875 
Q 14.796875 17.390625 18.875 11.75 
Q 22.953125 6.109375 30.078125 6.109375 
Q 37.203125 6.109375 41.296875 11.75 
Q 45.40625 17.390625 45.40625 27.296875 
Q 45.40625 37.203125 41.296875 42.84375 
Q 37.203125 48.484375 30.078125 48.484375 
Q 22.953125 48.484375 18.875 42.84375 
Q 14.796875 37.203125 14.796875 27.296875 
" id="DejaVuSans-64"/>
      <path d="M 56.203125 29.59375 
L 56.203125 25.203125 
L 14.890625 25.203125 
Q 15.484375 15.921875 20.484375 11.0625 
Q 25.484375 6.203125 34.421875 6.203125 
Q 39.59375 6.203125 44.453125 7.46875 
Q 49.3125 8.734375 54.109375 11.28125 
L 54.109375 2.78125 
Q 49.265625 0.734375 44.1875 -0.34375 
Q 39.109375 -1.421875 33.890625 -1.421875 
Q 20.796875 -1.421875 13.15625 6.1875 
Q 5.515625 13.8125 5.515625 26.8125 
Q 5.515625 40.234375 12.765625 48.109375 
Q 20.015625 56 32.328125 56 
Q 43.359375 56 49.78125 48.890625 
Q 56.203125 41.796875 56.203125 29.59375 
M 47.21875 32.234375 
Q 47.125 39.59375 43.09375 43.984375 
Q 39.0625 48.390625 32.421875 48.390625 
Q 24.90625 48.390625 20.390625 44.140625 
Q 15.875 39.890625 15.1875 32.171875 
z
" id="DejaVuSans-65"/>
      <path d="M 44.28125 53.078125 
L 44.28125 44.578125 
Q 40.484375 46.53125 36.375 47.5 
Q 32.28125 48.484375 27.875 48.484375 
Q 21.1875 48.484375 17.84375 46.4375 
Q 14.5 44.390625 14.5 40.28125 
Q 14.5 37.15625 16.890625 35.375 
Q 19.28125 33.59375 26.515625 31.984375 
L 29.59375 31.296875 
Q 39.15625 29.25 43.1875 25.515625 
Q 47.21875 21.78125 47.21875 15.09375 
Q 47.21875 7.46875 41.1875 3.015625 
Q 35.15625 -1.421875 24.609375 -1.421875 
Q 20.21875 -1.421875 15.453125 -0.5625 
Q 10.6875 0.296875 5.421875 2 
L 5.421875 11.28125 
Q 10.40625 8.6875 15.234375 7.390625 
Q 20.0625 6.109375 24.8125 6.109375 
Q 31.15625 6.109375 34.5625 8.28125 
Q 37.984375 10.453125 37.984375 14.40625 
Q 37.984375 18.0625 35.515625 20.015625 
Q 33.0625 21.96875 24.703125 23.78125 
L 21.578125 24.515625 
Q 13.234375 26.265625 9.515625 29.90625 
Q 5.8125 33.546875 5.8125 39.890625 
Q 5.8125 47.609375 11.28125 51.796875 
Q 16.75 56 26.8125 56 
Q 31.78125 56 36.171875 55.265625 
Q 40.578125 54.546875 44.28125 53.078125 
" id="DejaVuSans-73"/>
      <path d="M 34.28125 27.484375 
Q 23.390625 27.484375 19.1875 25 
Q 14.984375 22.515625 14.984375 16.5 
Q 14.984375 11.71875 18.140625 8.90625 
Q 21.296875 6.109375 26.703125 6.109375 
Q 34.1875 6.109375 38.703125 11.40625 
Q 43.21875 16.703125 43.21875 25.484375 
L 43.21875 27.484375 
z
M 52.203125 31.203125 
L 52.203125 0 
L 43.21875 0 
L 43.21875 8.296875 
Q 40.140625 3.328125 35.546875 0.953125 
Q 30.953125 -1.421875 24.3125 -1.421875 
Q 15.921875 -1.421875 10.953125 3.296875 
Q 6 8.015625 6 15.921875 
Q 6 25.140625 12.171875 29.828125 
Q 18.359375 34.515625 30.609375 34.515625 
L 43.21875 34.515625 
L 43.21875 35.40625 
Q 43.21875 41.609375 39.140625 45 
Q 35.0625 48.390625 27.6875 48.390625 
Q 23 48.390625 18.546875 47.265625 
Q 14.109375 46.140625 10.015625 43.890625 
L 10.015625 52.203125 
Q 14.9375 54.109375 19.578125 55.046875 
Q 24.21875 56 28.609375 56 
Q 40.484375 56 46.34375 49.84375 
Q 52.203125 43.703125 52.203125 31.203125 
" id="DejaVuSans-61"/>
     </defs>
     <g transform="translate(187.16953125 264.5984375)scale(0.1 -0.1)">
      <use xlink:href="#DejaVuSans-34"/>
      <use x="63.623046875" xlink:href="#DejaVuSans-30"/>
      <use x="127.24609375" xlink:href="#DejaVuSans-30"/>
      <use x="190.869140625" xlink:href="#DejaVuSans-20"/>
      <use x="222.65625" xlink:href="#DejaVuSans-64"/>
      <use x="286.1328125" xlink:href="#DejaVuSans-61"/>
      <use x="347.412109375" xlink:href="#DejaVuSans-74"/>
      <use x="386.62109375" xlink:href="#DejaVuSans-61"/>
      <use x="447.900390625" xlink:href="#DejaVuSans-20"/>
      <use x="479.6875" xlink:href="#DejaVuSans-73"/>
      <use x="531.787109375" xlink:href="#DejaVuSans-65"/>
      <use x="593.310546875" xlink:href="#DejaVuSans-74"/>
      <use x="632.51953125" xlink:href="#DejaVuSans-73"/>
     </g>
    </g>
   </g>
   <g id="matplotlib.axis_2">
    <g id="ytick_1">
     <g id="line2d_26">
      <path clip-path="url(#p27bf4db0c2)" d="M 109.8 252 
L 333 252 
" style="fill:none;stroke:#000000;stroke-dasharray:1.000000,3.000000;stroke-dashoffset:0.0;stroke-width:0.5;"/>
     </g>
     <g id="line2d_27">
      <defs>
       <path d="M 0 0 
L 4 0 
" id="md9e91dfde8" style="stroke:#000000;stroke-width:0.5;"/>
      </defs>
      <g>
       <use style="stroke:#000000;stroke-width:0.5;" x="109.8" xlink:href="#md9e91dfde8" y="252.0"/>
      </g>
     </g>
     <g id="line2d_28">
      <defs>
       <path d="M 0 0 
L -4 0 
" id="m3126277db3" style="stroke:#000000;stroke-width:0.5;"/>
      </defs>
      <g>
       <use style="stroke:#000000;stroke-width:0.5;" x="333.0" xlink:href="#m3126277db3" y="252.0"/>
      </g>
     </g>
     <g id="text_2">
      <!-- −0.01 -->
      <defs>
       <path d="M 12.40625 8.296875 
L 28.515625 8.296875 
L 28.515625 63.921875 
L 10.984375 60.40625 
L 10.984375 69.390625 
L 28.421875 72.90625 
L 38.28125 72.90625 
L 38.28125 8.296875 
L 54.390625 8.296875 
L 54.390625 0 
L 12.40625 0 
z
" id="DejaVuSans-31"/>
       <path d="M 10.6875 12.40625 
L 21 12.40625 
L 21 0 
L 10.6875 0 
z
" id="DejaVuSans-2e"/>
       <path d="M 10.59375 35.5 
L 73.1875 35.5 
L 73.1875 27.203125 
L 10.59375 27.203125 
z
" id="DejaVuSans-2212"/>
      </defs>
      <g transform="translate(75.1546875 254.759375)scale(0.1 -0.1)">
       <use xlink:href="#DejaVuSans-2212"/>
       <use x="83.7890625" xlink:href="#DejaVuSans-30"/>
       <use x="147.412109375" xlink:href="#DejaVuSans-2e"/>
       <use x="179.19921875" xlink:href="#DejaVuSans-30"/>
       <use x="242.822265625" xlink:href="#DejaVuSans-31"/>
      </g>
     </g>
    </g>
    <g id="ytick_2">
     <g id="line2d_29">
      <path clip-path="url(#p27bf4db0c2)" d="M 109.8 227.2 
L 333 227.2 
" style="fill:none;stroke:#000000;stroke-dasharray:1.000000,3.000000;stroke-dashoffset:0.0;stroke-width:0.5;"/>
     </g>
     <g id="line2d_30">
      <g>
       <use style="stroke:#000000;stroke-width:0.5;" x="109.8" xlink:href="#md9e91dfde8" y="227.2"/>
      </g>
     </g>
     <g id="line2d_31">
      <g>
       <use style="stroke:#000000;stroke-width:0.5;" x="333.0" xlink:href="#m3126277db3" y="227.2"/>
      </g>
     </g>
     <g id="text_3">
      <!-- 0.00 -->
      <g transform="translate(83.534375 229.959375)scale(0.1 -0.1)">
       <use xlink:href="#DejaVuSans-30"/>
       <use x="63.623046875" xlink:href="#DejaVuSans-2e"/>
       <use x="95.41015625" xlink:href="#DejaVuSans-30"/>
       <use x="159.033203125" xlink:href="#DejaVuSans-30"/>
      </g>
     </g>
    </g>
    <g id="ytick_3">
     <g id="line2d_32">
      <path clip-path="url(#p27bf4db0c2)" d="M 109.8 202.4 
L 333 202.4 
" style="fill:none;stroke:#000000;stroke-dasharray:1.000000,3.000000;stroke-dashoffset:0.0;stroke-width:0.5;"/>
     </g>
     <g id="line2d_33">
      <g>
       <use style="stroke:#000000;stroke-width:0.5;" x="109.8" xlink:href="#md9e91dfde8" y="202.4"/>
      </g>
     </g>
     <g id="line2d_34">
      <g>
       <use style="stroke:#000000;stroke-width:0.5;" x="333.0" xlink:href="#m3126277db3" y="202.4"/>
      </g>
     </g>
     <g id="text_4">
      <!-- 0.01 -->
      <g transform="translate(83.534375 205.159375)scale(0.1 -0.1)">
       <use xlink:href="#DejaVuSans-30"/>
       <use x="63.623046875" xlink:href="#DejaVuSans-2e"/>
       <use x="95.41015625" xlink:href="#DejaVuSans-30"/>
       <use x="159.033203125" xlink:href="#DejaVuSans-31"/>
      </g>
     </g>
    </g>
    <g id="ytick_4">
     <g id="line2d_35">
      <path clip-path="url(#p27bf4db0c2)" d="M 109.8 177.6 
L 333 177.6 
" style="fill:none;stroke:#000000;stroke-dasharray:1.000000,3.000000;stroke-dashoffset:0.0;stroke-width:0.5;"/>
     </g>
     <g id="line2d_36">
      <g>
       <use style="stroke:#000000;stroke-width:0.5;" x="109.8" xlink:href="#md9e91dfde8" y="177.6"/>
      </g>
     </g>
     <g id="line2d_37">
      <g>
       <use style="stroke:#000000;stroke-width:0.5;" x="333.0" xlink:href="#m3126277db3" y="177.6"/>
      </g>
     </g>
     <g id="text_5">
      <!-- 0.02 -->
      <defs>
       <path d="M 19.1875 8.296875 
L 53.609375 8.296875 
L 53.609375 0 
L 7.328125 0 
L 7.328125 8.296875 
Q 12.9375 14.109375 22.625 23.890625 
Q 32.328125 33.6875 34.8125 36.53125 
Q 39.546875 41.84375 41.421875 45.53125 
Q 43.3125 49.21875 43.3125 52.78125 
Q 43.3125 58.59375 39.234375 62.25 
Q 35.15625 65.921875 28.609375 65.921875 
Q 23.96875 65.921875 18.8125 64.3125 
Q 13.671875 62.703125 7.8125 59.421875 
L 7.8125 69.390625 
Q 13.765625 71.78125 18.9375 73 
Q 24.125 74.21875 28.421875 74.21875 
Q 39.75 74.21875 46.484375 68.546875 
Q 53.21875 62.890625 53.21875 53.421875 
Q 53.21875 48.921875 51.53125 44.890625 
Q 49.859375 40.875 45.40625 35.40625 
Q 44.1875 33.984375 37.640625 27.21875 
Q 31.109375 20.453125 19.1875 8.296875 
" id="DejaVuSans-32"/>
      </defs>
      <g transform="translate(83.534375 180.359375)scale(0.1 -0.1)">
       <use xlink:href="#DejaVuSans-30"/>
       <use x="63.623046875" xlink:href="#DejaVuSans-2e"/>
       <use x="95.41015625" xlink:href="#DejaVuSans-30"/>
       <use x="159.033203125" xlink:href="#DejaVuSans-32"/>
      </g>
     </g>
    </g>
    <g id="ytick_5">
     <g id="line2d_38">
      <path clip-path="url(#p27bf4db0c2)" d="M 109.8 152.8 
L 333 152.8 
" style="fill:none;stroke:#000000;stroke-dasharray:1.000000,3.000000;stroke-dashoffset:0.0;stroke-width:0.5;"/>
     </g>
     <g id="line2d_39">
      <g>
       <use style="stroke:#000000;stroke-width:0.5;" x="109.8" xlink:href="#md9e91dfde8" y="152.8"/>
      </g>
     </g>
     <g id="line2d_40">
      <g>
       <use style="stroke:#000000;stroke-width:0.5;" x="333.0" xlink:href="#m3126277db3" y="152.8"/>
      </g>
     </g>
     <g id="text_6">
      <!-- 0.03 -->
      <defs>
       <path d="M 40.578125 39.3125 
Q 47.65625 37.796875 51.625 33 
Q 55.609375 28.21875 55.609375 21.1875 
Q 55.609375 10.40625 48.1875 4.484375 
Q 40.765625 -1.421875 27.09375 -1.421875 
Q 22.515625 -1.421875 17.65625 -0.515625 
Q 12.796875 0.390625 7.625 2.203125 
L 7.625 11.71875 
Q 11.71875 9.328125 16.59375 8.109375 
Q 21.484375 6.890625 26.8125 6.890625 
Q 36.078125 6.890625 40.9375 10.546875 
Q 45.796875 14.203125 45.796875 21.1875 
Q 45.796875 27.640625 41.28125 31.265625 
Q 36.765625 34.90625 28.71875 34.90625 
L 20.21875 34.90625 
L 20.21875 43.015625 
L 29.109375 43.015625 
Q 36.375 43.015625 40.234375 45.921875 
Q 44.09375 48.828125 44.09375 54.296875 
Q 44.09375 59.90625 40.109375 62.90625 
Q 36.140625 65.921875 28.71875 65.921875 
Q 24.65625 65.921875 20.015625 65.03125 
Q 15.375 64.15625 9.8125 62.3125 
L 9.8125 71.09375 
Q 15.4375 72.65625 20.34375 73.4375 
Q 25.25 74.21875 29.59375 74.21875 
Q 40.828125 74.21875 47.359375 69.109375 
Q 53.90625 64.015625 53.90625 55.328125 
Q 53.90625 49.265625 50.4375 45.09375 
Q 46.96875 40.921875 40.578125 39.3125 
" id="DejaVuSans-33"/>
      </defs>
      <g transform="translate(83.534375 155.559375)scale(0.1 -0.1)">
       <use xlink:href="#DejaVuSans-30"/>
       <use x="63.623046875" xlink:href="#DejaVuSans-2e"/>
       <use x="95.41015625" xlink:href="#DejaVuSans-30"/>
       <use x="159.033203125" xlink:href="#DejaVuSans-33"/>
      </g>
     </g>
    </g>
    <g id="ytick_6">
     <g id="line2d_41">
      <path clip-path="url(#p27bf4db0c2)" d="M 109.8 128 
L 333 128 
" style="fill:none;stroke:#000000;stroke-dasharray:1.000000,3.000000;stroke-dashoffset:0.0;stroke-width:0.5;"/>
     </g>
     <g id="line2d_42">
      <g>
       <use style="stroke:#000000;stroke-width:0.5;" x="109.8" xlink:href="#md9e91dfde8" y="128.0"/>
      </g>
     </g>
     <g id="line2d_43">
      <g>
       <use style="stroke:#000000;stroke-width:0.5;" x="333.0" xlink:href="#m3126277db3" y="128.0"/>
      </g>
     </g>
     <g id="text_7">
      <!-- 0.04 -->
      <g transform="translate(83.534375 130.759375)scale(0.1 -0.1)">
       <use xlink:href="#DejaVuSans-30"/>
       <use x="63.623046875" xlink:href="#DejaVuSans-2e"/>
       <use x="95.41015625" xlink:href="#DejaVuSans-30"/>
       <use x="159.033203125" xlink:href="#DejaVuSans-34"/>
      </g>
     </g>
    </g>
    <g id="ytick_7">
     <g id="line2d_44">
      <path clip-path="url(#p27bf4db0c2)" d="M 109.8 103.2 
L 333 103.2 
" style="fill:none;stroke:#000000;stroke-dasharray:1.000000,3.000000;stroke-dashoffset:0.0;stroke-width:0.5;"/>
     </g>
     <g id="line2d_45">
      <g>
       <use style="stroke:#000000;stroke-width:0.5;" x="109.8" xlink:href="#md9e91dfde8" y="103.2"/>
      </g>
     </g>
     <g id="line2d_46">
      <g>
       <use style="stroke:#000000;stroke-width:0.5;" x="333.0" xlink:href="#m3126277db3" y="103.2"/>
      </g>
     </g>
     <g id="text_8">
      <!-- 0.05 -->
      <defs>
       <path d="M 10.796875 72.90625 
L 49.515625 72.90625 
L 49.515625 64.59375 
L 19.828125 64.59375 
L 19.828125 46.734375 
Q 21.96875 47.46875 24.109375 47.828125 
Q 26.265625 48.1875 28.421875 48.1875 
Q 40.625 48.1875 47.75 41.5 
Q 54.890625 34.8125 54.890625 23.390625 
Q 54.890625 11.625 47.5625 5.09375 
Q 40.234375 -1.421875 26.90625 -1.421875 
Q 22.3125 -1.421875 17.546875 -0.640625 
Q 12.796875 0.140625 7.71875 1.703125 
L 7.71875 11.625 
Q 12.109375 9.234375 16.796875 8.0625 
Q 21.484375 6.890625 26.703125 6.890625 
Q 35.15625 6.890625 40.078125 11.328125 
Q 45.015625 15.765625 45.015625 23.390625 
Q 45.015625 31 40.078125 35.4375 
Q 35.15625 39.890625 26.703125 39.890625 
Q 22.75 39.890625 18.8125 39.015625 
Q 14.890625 38.140625 10.796875 36.28125 
z
" id="DejaVuSans-35"/>
      </defs>
      <g transform="translate(83.534375 105.959375)scale(0.1 -0.1)">
       <use xlink:href="#DejaVuSans-30"/>
       <use x="63.623046875" xlink:href="#DejaVuSans-2e"/>
       <use x="95.41015625" xlink:href="#DejaVuSans-30"/>
       <use x="159.033203125" xlink:href="#DejaVuSans-35"/>
      </g>
     </g>
    </g>
    <g id="ytick_8">
     <g id="line2d_47">
      <path clip-path="url(#p27bf4db0c2)" d="M 109.8 78.4 
L 333 78.4 
" style="fill:none;stroke:#000000;stroke-dasharray:1.000000,3.000000;stroke-dashoffset:0.0;stroke-width:0.5;"/>
     </g>
     <g id="line2d_48">
      <g>
       <use style="stroke:#000000;stroke-width:0.5;" x="109.8" xlink:href="#md9e91dfde8" y="78.4"/>
      </g>
     </g>
     <g id="line2d_49">
      <g>
       <use style="stroke:#000000;stroke-width:0.5;" x="333.0" xlink:href="#m3126277db3" y="78.4"/>
      </g>
     </g>
     <g id="text_9">
      <!-- 0.06 -->
      <defs>
       <path d="M 33.015625 40.375 
Q 26.375 40.375 22.484375 35.828125 
Q 18.609375 31.296875 18.609375 23.390625 
Q 18.609375 15.53125 22.484375 10.953125 
Q 26.375 6.390625 33.015625 6.390625 
Q 39.65625 6.390625 43.53125 10.953125 
Q 47.40625 15.53125 47.40625 23.390625 
Q 47.40625 31.296875 43.53125 35.828125 
Q 39.65625 40.375 33.015625 40.375 
M 52.59375 71.296875 
L 52.59375 62.3125 
Q 48.875 64.0625 45.09375 64.984375 
Q 41.3125 65.921875 37.59375 65.921875 
Q 27.828125 65.921875 22.671875 59.328125 
Q 17.53125 52.734375 16.796875 39.40625 
Q 19.671875 43.65625 24.015625 45.921875 
Q 28.375 48.1875 33.59375 48.1875 
Q 44.578125 48.1875 50.953125 41.515625 
Q 57.328125 34.859375 57.328125 23.390625 
Q 57.328125 12.15625 50.6875 5.359375 
Q 44.046875 -1.421875 33.015625 -1.421875 
Q 20.359375 -1.421875 13.671875 8.265625 
Q 6.984375 17.96875 6.984375 36.375 
Q 6.984375 53.65625 15.1875 63.9375 
Q 23.390625 74.21875 37.203125 74.21875 
Q 40.921875 74.21875 44.703125 73.484375 
Q 48.484375 72.75 52.59375 71.296875 
" id="DejaVuSans-36"/>
      </defs>
      <g transform="translate(83.534375 81.159375)scale(0.1 -0.1)">
       <use xlink:href="#DejaVuSans-30"/>
       <use x="63.623046875" xlink:href="#DejaVuSans-2e"/>
       <use x="95.41015625" xlink:href="#DejaVuSans-30"/>
       <use x="159.033203125" xlink:href="#DejaVuSans-36"/>
      </g>
     </g>
    </g>
    <g id="ytick_9">
     <g id="line2d_50">
      <path clip-path="url(#p27bf4db0c2)" d="M 109.8 53.6 
L 333 53.6 
" style="fill:none;stroke:#000000;stroke-dasharray:1.000000,3.000000;stroke-dashoffset:0.0;stroke-width:0.5;"/>
     </g>
     <g id="line2d_51">
      <g>
       <use style="stroke:#000000;stroke-width:0.5;" x="109.8" xlink:href="#md9e91dfde8" y="53.6"/>
      </g>
     </g>
     <g id="line2d_52">
      <g>
       <use style="stroke:#000000;stroke-width:0.5;" x="333.0" xlink:href="#m3126277db3" y="53.6"/>
      </g>
     </g>
     <g id="text_10">
      <!-- 0.07 -->
      <defs>
       <path d="M 8.203125 72.90625 
L 55.078125 72.90625 
L 55.078125 68.703125 
L 28.609375 0 
L 18.3125 0 
L 43.21875 64.59375 
L 8.203125 64.59375 
z
" id="DejaVuSans-37"/>
      </defs>
      <g transform="translate(83.534375 56.359375)scale(0.1 -0.1)">
       <use xlink:href="#DejaVuSans-30"/>
       <use x="63.623046875" xlink:href="#DejaVuSans-2e"/>
       <use x="95.41015625" xlink:href="#DejaVuSans-30"/>
       <use x="159.033203125" xlink:href="#DejaVuSans-37"/>
      </g>
     </g>
    </g>
    <g id="ytick_10">
     <g id="line2d_53">
      <path clip-path="url(#p27bf4db0c2)" d="M 109.8 28.8 
L 333 28.8 
" style="fill:none;stroke:#000000;stroke-dasharray:1.000000,3.000000;stroke-dashoffset:0.0;stroke-width:0.5;"/>
     </g>
     <g id="line2d_54">
      <g>
       <use style="stroke:#000000;stroke-width:0.5;" x="109.8" xlink:href="#md9e91dfde8" y="28.8"/>
      </g>
     </g>
     <g id="line2d_55">
      <g>
       <use style="stroke:#000000;stroke-width:0.5;" x="333.0" xlink:href="#m3126277db3" y="28.8"/>
      </g>
     </g>
     <g id="text_11">
      <!-- 0.08 -->
      <defs>
       <path d="M 31.78125 34.625 
Q 24.75 34.625 20.71875 30.859375 
Q 16.703125 27.09375 16.703125 20.515625 
Q 16.703125 13.921875 20.71875 10.15625 
Q 24.75 6.390625 31.78125 6.390625 
Q 38.8125 6.390625 42.859375 10.171875 
Q 46.921875 13.96875 46.921875 20.515625 
Q 46.921875 27.09375 42.890625 30.859375 
Q 38.875 34.625 31.78125 34.625 
M 21.921875 38.8125 
Q 15.578125 40.375 12.03125 44.71875 
Q 8.5 49.078125 8.5 55.328125 
Q 8.5 64.0625 14.71875 69.140625 
Q 20.953125 74.21875 31.78125 74.21875 
Q 42.671875 74.21875 48.875 69.140625 
Q 55.078125 64.0625 55.078125 55.328125 
Q 55.078125 49.078125 51.53125 44.71875 
Q 48 40.375 41.703125 38.8125 
Q 48.828125 37.15625 52.796875 32.3125 
Q 56.78125 27.484375 56.78125 20.515625 
Q 56.78125 9.90625 50.3125 4.234375 
Q 43.84375 -1.421875 31.78125 -1.421875 
Q 19.734375 -1.421875 13.25 4.234375 
Q 6.78125 9.90625 6.78125 20.515625 
Q 6.78125 27.484375 10.78125 32.3125 
Q 14.796875 37.15625 21.921875 38.8125 
M 18.3125 54.390625 
Q 18.3125 48.734375 21.84375 45.5625 
Q 25.390625 42.390625 31.78125 42.390625 
Q 38.140625 42.390625 41.71875 45.5625 
Q 45.3125 48.734375 45.3125 54.390625 
Q 45.3125 60.0625 41.71875 63.234375 
Q 38.140625 66.40625 31.78125 66.40625 
Q 25.390625 66.40625 21.84375 63.234375 
Q 18.3125 60.0625 18.3125 54.390625 
" id="DejaVuSans-38"/>
      </defs>
      <g transform="translate(83.534375 31.559375)scale(0.1 -0.1)">
       <use xlink:href="#DejaVuSans-30"/>
       <use x="63.623046875" xlink:href="#DejaVuSans-2e"/>
       <use x="95.41015625" xlink:href="#DejaVuSans-30"/>
       <use x="159.033203125" xlink:href="#DejaVuSans-38"/>
      </g>
     </g>
    </g>
    <g id="text_12">
     <!-- AUPRC (TFFM + DNA shape + flanks) -->
     <defs>
      <path d="M 9.8125 72.90625 
L 24.515625 72.90625 
L 43.109375 23.296875 
L 61.8125 72.90625 
L 76.515625 72.90625 
L 76.515625 0 
L 66.890625 0 
L 66.890625 64.015625 
L 48.09375 14.015625 
L 38.1875 14.015625 
L 19.390625 64.015625 
L 19.390625 0 
L 9.8125 0 
z
" id="DejaVuSans-4d"/>
      <path d="M 46 62.703125 
L 46 35.5 
L 73.1875 35.5 
L 73.1875 27.203125 
L 46 27.203125 
L 46 0 
L 37.796875 0 
L 37.796875 27.203125 
L 10.59375 27.203125 
L 10.59375 35.5 
L 37.796875 35.5 
L 37.796875 62.703125 
z
" id="DejaVuSans-2b"/>
      <path d="M 8.015625 75.875 
L 15.828125 75.875 
Q 23.140625 64.359375 26.78125 53.3125 
Q 30.421875 42.28125 30.421875 31.390625 
Q 30.421875 20.453125 26.78125 9.375 
Q 23.140625 -1.703125 15.828125 -13.1875 
L 8.015625 -13.1875 
Q 14.5 -2 17.703125 9.0625 
Q 20.90625 20.125 20.90625 31.390625 
Q 20.90625 42.671875 17.703125 53.65625 
Q 14.5 64.65625 8.015625 75.875 
" id="DejaVuSans-29"/>
      <path d="M 9.8125 72.90625 
L 23.09375 72.90625 
L 55.421875 11.921875 
L 55.421875 72.90625 
L 64.984375 72.90625 
L 64.984375 0 
L 51.703125 0 
L 19.390625 60.984375 
L 19.390625 0 
L 9.8125 0 
z
" id="DejaVuSans-4e"/>
      <path d="M 54.890625 33.015625 
L 54.890625 0 
L 45.90625 0 
L 45.90625 32.71875 
Q 45.90625 40.484375 42.875 44.328125 
Q 39.84375 48.1875 33.796875 48.1875 
Q 26.515625 48.1875 22.3125 43.546875 
Q 18.109375 38.921875 18.109375 30.90625 
L 18.109375 0 
L 9.078125 0 
L 9.078125 54.6875 
L 18.109375 54.6875 
L 18.109375 46.1875 
Q 21.34375 51.125 25.703125 53.5625 
Q 30.078125 56 35.796875 56 
Q 45.21875 56 50.046875 50.171875 
Q 54.890625 44.34375 54.890625 33.015625 
" id="DejaVuSans-6e"/>
      <path d="M 9.078125 75.984375 
L 18.109375 75.984375 
L 18.109375 31.109375 
L 44.921875 54.6875 
L 56.390625 54.6875 
L 27.390625 29.109375 
L 57.625 0 
L 45.90625 0 
L 18.109375 26.703125 
L 18.109375 0 
L 9.078125 0 
z
" id="DejaVuSans-6b"/>
      <path d="M 9.421875 75.984375 
L 18.40625 75.984375 
L 18.40625 0 
L 9.421875 0 
z
" id="DejaVuSans-6c"/>
      <path d="M 19.671875 64.796875 
L 19.671875 8.109375 
L 31.59375 8.109375 
Q 46.6875 8.109375 53.6875 14.9375 
Q 60.6875 21.78125 60.6875 36.53125 
Q 60.6875 51.171875 53.6875 57.984375 
Q 46.6875 64.796875 31.59375 64.796875 
z
M 9.8125 72.90625 
L 30.078125 72.90625 
Q 51.265625 72.90625 61.171875 64.09375 
Q 71.09375 55.28125 71.09375 36.53125 
Q 71.09375 17.671875 61.125 8.828125 
Q 51.171875 0 30.078125 0 
L 9.8125 0 
z
" id="DejaVuSans-44"/>
      <path d="M 9.8125 72.90625 
L 51.703125 72.90625 
L 51.703125 64.59375 
L 19.671875 64.59375 
L 19.671875 43.109375 
L 48.578125 43.109375 
L 48.578125 34.8125 
L 19.671875 34.8125 
L 19.671875 0 
L 9.8125 0 
z
" id="DejaVuSans-46"/>
      <path d="M 34.1875 63.1875 
L 20.796875 26.90625 
L 47.609375 26.90625 
z
M 28.609375 72.90625 
L 39.796875 72.90625 
L 67.578125 0 
L 57.328125 0 
L 50.6875 18.703125 
L 17.828125 18.703125 
L 11.1875 0 
L 0.78125 0 
z
" id="DejaVuSans-41"/>
      <path d="M 54.890625 33.015625 
L 54.890625 0 
L 45.90625 0 
L 45.90625 32.71875 
Q 45.90625 40.484375 42.875 44.328125 
Q 39.84375 48.1875 33.796875 48.1875 
Q 26.515625 48.1875 22.3125 43.546875 
Q 18.109375 38.921875 18.109375 30.90625 
L 18.109375 0 
L 9.078125 0 
L 9.078125 75.984375 
L 18.109375 75.984375 
L 18.109375 46.1875 
Q 21.34375 51.125 25.703125 53.5625 
Q 30.078125 56 35.796875 56 
Q 45.21875 56 50.046875 50.171875 
Q 54.890625 44.34375 54.890625 33.015625 
" id="DejaVuSans-68"/>
      <path d="M 64.40625 67.28125 
L 64.40625 56.890625 
Q 59.421875 61.53125 53.78125 63.8125 
Q 48.140625 66.109375 41.796875 66.109375 
Q 29.296875 66.109375 22.65625 58.46875 
Q 16.015625 50.828125 16.015625 36.375 
Q 16.015625 21.96875 22.65625 14.328125 
Q 29.296875 6.6875 41.796875 6.6875 
Q 48.140625 6.6875 53.78125 8.984375 
Q 59.421875 11.28125 64.40625 15.921875 
L 64.40625 5.609375 
Q 59.234375 2.09375 53.4375 0.328125 
Q 47.65625 -1.421875 41.21875 -1.421875 
Q 24.65625 -1.421875 15.125 8.703125 
Q 5.609375 18.84375 5.609375 36.375 
Q 5.609375 53.953125 15.125 64.078125 
Q 24.65625 74.21875 41.21875 74.21875 
Q 47.75 74.21875 53.53125 72.484375 
Q 59.328125 70.75 64.40625 67.28125 
" id="DejaVuSans-43"/>
      <path d="M 37.109375 75.984375 
L 37.109375 68.5 
L 28.515625 68.5 
Q 23.6875 68.5 21.796875 66.546875 
Q 19.921875 64.59375 19.921875 59.515625 
L 19.921875 54.6875 
L 34.71875 54.6875 
L 34.71875 47.703125 
L 19.921875 47.703125 
L 19.921875 0 
L 10.890625 0 
L 10.890625 47.703125 
L 2.296875 47.703125 
L 2.296875 54.6875 
L 10.890625 54.6875 
L 10.890625 58.5 
Q 10.890625 67.625 15.140625 71.796875 
Q 19.390625 75.984375 28.609375 75.984375 
z
" id="DejaVuSans-66"/>
      <path d="M 44.390625 34.1875 
Q 47.5625 33.109375 50.5625 29.59375 
Q 53.5625 26.078125 56.59375 19.921875 
L 66.609375 0 
L 56 0 
L 46.6875 18.703125 
Q 43.0625 26.03125 39.671875 28.421875 
Q 36.28125 30.8125 30.421875 30.8125 
L 19.671875 30.8125 
L 19.671875 0 
L 9.8125 0 
L 9.8125 72.90625 
L 32.078125 72.90625 
Q 44.578125 72.90625 50.734375 67.671875 
Q 56.890625 62.453125 56.890625 51.90625 
Q 56.890625 45.015625 53.6875 40.46875 
Q 50.484375 35.9375 44.390625 34.1875 
M 19.671875 64.796875 
L 19.671875 38.921875 
L 32.078125 38.921875 
Q 39.203125 38.921875 42.84375 42.21875 
Q 46.484375 45.515625 46.484375 51.90625 
Q 46.484375 58.296875 42.84375 61.546875 
Q 39.203125 64.796875 32.078125 64.796875 
z
" id="DejaVuSans-52"/>
      <path d="M 31 75.875 
Q 24.46875 64.65625 21.28125 53.65625 
Q 18.109375 42.671875 18.109375 31.390625 
Q 18.109375 20.125 21.3125 9.0625 
Q 24.515625 -2 31 -13.1875 
L 23.1875 -13.1875 
Q 15.875 -1.703125 12.234375 9.375 
Q 8.59375 20.453125 8.59375 31.390625 
Q 8.59375 42.28125 12.203125 53.3125 
Q 15.828125 64.359375 23.1875 75.875 
z
" id="DejaVuSans-28"/>
      <path d="M 19.671875 64.796875 
L 19.671875 37.40625 
L 32.078125 37.40625 
Q 38.96875 37.40625 42.71875 40.96875 
Q 46.484375 44.53125 46.484375 51.125 
Q 46.484375 57.671875 42.71875 61.234375 
Q 38.96875 64.796875 32.078125 64.796875 
z
M 9.8125 72.90625 
L 32.078125 72.90625 
Q 44.34375 72.90625 50.609375 67.359375 
Q 56.890625 61.8125 56.890625 51.125 
Q 56.890625 40.328125 50.609375 34.8125 
Q 44.34375 29.296875 32.078125 29.296875 
L 19.671875 29.296875 
L 19.671875 0 
L 9.8125 0 
z
" id="DejaVuSans-50"/>
      <path d="M 18.109375 8.203125 
L 18.109375 -20.796875 
L 9.078125 -20.796875 
L 9.078125 54.6875 
L 18.109375 54.6875 
L 18.109375 46.390625 
Q 20.953125 51.265625 25.265625 53.625 
Q 29.59375 56 35.59375 56 
Q 45.5625 56 51.78125 48.09375 
Q 58.015625 40.1875 58.015625 27.296875 
Q 58.015625 14.40625 51.78125 6.484375 
Q 45.5625 -1.421875 35.59375 -1.421875 
Q 29.59375 -1.421875 25.265625 0.953125 
Q 20.953125 3.328125 18.109375 8.203125 
M 48.6875 27.296875 
Q 48.6875 37.203125 44.609375 42.84375 
Q 40.53125 48.484375 33.40625 48.484375 
Q 26.265625 48.484375 22.1875 42.84375 
Q 18.109375 37.203125 18.109375 27.296875 
Q 18.109375 17.390625 22.1875 11.75 
Q 26.265625 6.109375 33.40625 6.109375 
Q 40.53125 6.109375 44.609375 11.75 
Q 48.6875 17.390625 48.6875 27.296875 
" id="DejaVuSans-70"/>
      <path d="M 8.6875 72.90625 
L 18.609375 72.90625 
L 18.609375 28.609375 
Q 18.609375 16.890625 22.84375 11.734375 
Q 27.09375 6.59375 36.625 6.59375 
Q 46.09375 6.59375 50.34375 11.734375 
Q 54.59375 16.890625 54.59375 28.609375 
L 54.59375 72.90625 
L 64.5 72.90625 
L 64.5 27.390625 
Q 64.5 13.140625 57.4375 5.859375 
Q 50.390625 -1.421875 36.625 -1.421875 
Q 22.796875 -1.421875 15.734375 5.859375 
Q 8.6875 13.140625 8.6875 27.390625 
z
" id="DejaVuSans-55"/>
      <path d="M -0.296875 72.90625 
L 61.375 72.90625 
L 61.375 64.59375 
L 35.5 64.59375 
L 35.5 0 
L 25.59375 0 
L 25.59375 64.59375 
L -0.296875 64.59375 
z
" id="DejaVuSans-54"/>
     </defs>
     <g transform="translate(56.8771875 233.37265625)rotate(-90.0)scale(0.1 -0.1)">
      <use xlink:href="#DejaVuSans-41"/>
      <use x="68.408203125" xlink:href="#DejaVuSans-55"/>
      <use x="141.6015625" xlink:href="#DejaVuSans-50"/>
      <use x="201.904296875" xlink:href="#DejaVuSans-52"/>
      <use x="271.30859375" xlink:href="#DejaVuSans-43"/>
      <use x="341.1328125" xlink:href="#DejaVuSans-20"/>
      <use x="372.919921875" xlink:href="#DejaVuSans-28"/>
      <use x="411.93359375" xlink:href="#DejaVuSans-54"/>
      <use x="473.017578125" xlink:href="#DejaVuSans-46"/>
      <use x="530.537109375" xlink:href="#DejaVuSans-46"/>
      <use x="588.056640625" xlink:href="#DejaVuSans-4d"/>
      <use x="674.3359375" xlink:href="#DejaVuSans-20"/>
      <use x="706.123046875" xlink:href="#DejaVuSans-2b"/>
      <use x="789.912109375" xlink:href="#DejaVuSans-20"/>
      <use x="821.69921875" xlink:href="#DejaVuSans-44"/>
      <use x="898.701171875" xlink:href="#DejaVuSans-4e"/>
      <use x="973.505859375" xlink:href="#DejaVuSans-41"/>
      <use x="1041.9140625" xlink:href="#DejaVuSans-20"/>
      <use x="1073.70117188" xlink:href="#DejaVuSans-73"/>
      <use x="1125.80078125" xlink:href="#DejaVuSans-68"/>
      <use x="1189.1796875" xlink:href="#DejaVuSans-61"/>
      <use x="1250.45898438" xlink:href="#DejaVuSans-70"/>
      <use x="1313.93554688" xlink:href="#DejaVuSans-65"/>
      <use x="1375.45898438" xlink:href="#DejaVuSans-20"/>
      <use x="1407.24609375" xlink:href="#DejaVuSans-2b"/>
      <use x="1491.03515625" xlink:href="#DejaVuSans-20"/>
      <use x="1522.82226562" xlink:href="#DejaVuSans-66"/>
      <use x="1558.02734375" xlink:href="#DejaVuSans-6c"/>
      <use x="1585.81054688" xlink:href="#DejaVuSans-61"/>
      <use x="1647.08984375" xlink:href="#DejaVuSans-6e"/>
      <use x="1710.46875" xlink:href="#DejaVuSans-6b"/>
      <use x="1768.37890625" xlink:href="#DejaVuSans-73"/>
      <use x="1820.47851562" xlink:href="#DejaVuSans-29"/>
     </g>
     <!--  - AUPRC (TFFM + DNA shape) -->
     <defs>
      <path d="M 4.890625 31.390625 
L 31.203125 31.390625 
L 31.203125 23.390625 
L 4.890625 23.390625 
z
" id="DejaVuSans-2d"/>
     </defs>
     <g transform="translate(68.075 216.1046875)rotate(-90.0)scale(0.1 -0.1)">
      <use xlink:href="#DejaVuSans-20"/>
      <use x="31.787109375" xlink:href="#DejaVuSans-2d"/>
      <use x="67.87109375" xlink:href="#DejaVuSans-20"/>
      <use x="99.658203125" xlink:href="#DejaVuSans-41"/>
      <use x="168.06640625" xlink:href="#DejaVuSans-55"/>
      <use x="241.259765625" xlink:href="#DejaVuSans-50"/>
      <use x="301.5625" xlink:href="#DejaVuSans-52"/>
      <use x="370.966796875" xlink:href="#DejaVuSans-43"/>
      <use x="440.791015625" xlink:href="#DejaVuSans-20"/>
      <use x="472.578125" xlink:href="#DejaVuSans-28"/>
      <use x="511.591796875" xlink:href="#DejaVuSans-54"/>
      <use x="572.67578125" xlink:href="#DejaVuSans-46"/>
      <use x="630.1953125" xlink:href="#DejaVuSans-46"/>
      <use x="687.71484375" xlink:href="#DejaVuSans-4d"/>
      <use x="773.994140625" xlink:href="#DejaVuSans-20"/>
      <use x="805.78125" xlink:href="#DejaVuSans-2b"/>
      <use x="889.5703125" xlink:href="#DejaVuSans-20"/>
      <use x="921.357421875" xlink:href="#DejaVuSans-44"/>
      <use x="998.359375" xlink:href="#DejaVuSans-4e"/>
      <use x="1073.1640625" xlink:href="#DejaVuSans-41"/>
      <use x="1141.57226562" xlink:href="#DejaVuSans-20"/>
      <use x="1173.359375" xlink:href="#DejaVuSans-73"/>
      <use x="1225.45898438" xlink:href="#DejaVuSans-68"/>
      <use x="1288.83789062" xlink:href="#DejaVuSans-61"/>
      <use x="1350.1171875" xlink:href="#DejaVuSans-70"/>
      <use x="1413.59375" xlink:href="#DejaVuSans-65"/>
      <use x="1475.1171875" xlink:href="#DejaVuSans-29"/>
     </g>
    </g>
   </g>
  </g>
 </g>
 <defs>
  <clipPath id="p27bf4db0c2">
   <rect height="223.2" width="223.2" x="109.8" y="28.8"/>
  </clipPath>
 </defs>
</svg>
