<?xml version="1.0" encoding="utf-8" standalone="no"?>
<!DOCTYPE svg PUBLIC "-//W3C//DTD SVG 1.1//EN"
  "http://www.w3.org/Graphics/SVG/1.1/DTD/svg11.dtd">
<!-- Created with matplotlib (http://matplotlib.org/) -->
<svg height="288pt" version="1.1" viewBox="0 0 432 288" width="432pt" xmlns="http://www.w3.org/2000/svg" xmlns:xlink="http://www.w3.org/1999/xlink">
 <defs>
  <style type="text/css">
*{stroke-linecap:butt;stroke-linejoin:round;stroke-miterlimit:4;}
  </style>
 </defs>
 <g id="figure_1">
  <g id="patch_1">
   <path d="M 0 288 
L 432 288 
L 432 0 
L 0 0 
z
" style="fill:#ffffff;"/>
  </g>
  <g id="axes_1">
   <g id="patch_2">
    <path d="M 109.8 252 
L 333 252 
L 333 28.8 
L 109.8 28.8 
L 109.8 252 
z
" style="fill:none;"/>
   </g>
   <g id="line2d_1">
    <path clip-path="url(#pae43e64f57)" d="M 109.8 211.136446 
L 110.359398 210.999145 
L 110.918797 210.211295 
L 111.478195 210.155721 
L 112.037594 209.786314 
L 113.156391 209.571372 
L 114.834586 209.355613 
L 115.393985 208.964957 
L 117.07218 208.929814 
L 117.631579 208.656846 
L 126.581955 207.911495 
L 133.294737 207.305897 
L 135.532331 207.120376 
L 139.44812 206.907886 
L 140.566917 206.75996 
L 142.804511 206.676598 
L 143.923308 206.562997 
L 144.482707 206.558094 
L 145.601504 206.308826 
L 147.279699 205.811108 
L 149.517293 205.727746 
L 150.076692 205.611694 
L 153.992481 205.490738 
L 155.111278 205.41228 
L 156.230075 205.179357 
L 157.908271 205.04369 
L 159.027068 204.901485 
L 162.942857 204.640776 
L 164.061654 204.37598 
L 165.180451 204.25911 
L 166.858647 204.132433 
L 170.215038 203.760575 
L 170.774436 203.541546 
L 173.01203 203.413235 
L 173.571429 203.013589 
L 175.249624 202.703026 
L 175.809023 202.566542 
L 176.92782 202.51015 
L 178.606015 202.227374 
L 179.724812 202.024691 
L 180.843609 201.974837 
L 181.962406 201.808931 
L 188.115789 201.00964 
L 188.675188 200.720326 
L 190.353383 200.360727 
L 198.744361 199.845029 
L 199.863158 199.659508 
L 202.100752 199.513217 
L 203.219549 198.937041 
L 203.778947 198.704936 
L 206.57594 198.362499 
L 207.135338 198.185151 
L 207.694737 198.170441 
L 208.254135 197.970209 
L 209.372932 197.860695 
L 211.610526 197.388312 
L 213.288722 197.050779 
L 215.526316 196.967418 
L 216.085714 196.745937 
L 218.323308 196.598011 
L 218.882707 196.378165 
L 220.001504 196.276823 
L 220.560902 196.026739 
L 221.120301 195.938473 
L 221.679699 195.453014 
L 222.239098 195.319799 
L 223.357895 195.308357 
L 223.917293 195.059907 
L 224.476692 195.02313 
L 225.03609 194.718288 
L 227.273684 194.577717 
L 228.392481 194.461664 
L 228.95188 194.144563 
L 230.630075 193.637855 
L 231.189474 193.390222 
L 233.427068 193.198981 
L 234.545865 192.571316 
L 235.105263 192.532087 
L 235.664662 192.288541 
L 236.783459 192.101386 
L 237.342857 191.91423 
L 237.902256 191.90524 
L 238.461654 191.659242 
L 240.13985 191.458193 
L 240.699248 191.21955 
L 241.258647 191.218733 
L 242.377444 191.050375 
L 243.496241 190.916342 
L 244.055639 190.614769 
L 244.615038 190.591886 
L 245.174436 190.446412 
L 245.733835 190.445594 
L 247.41203 190.100706 
L 249.090226 190.00672 
L 249.649624 189.673273 
L 251.32782 189.511454 
L 251.887218 189.011284 
L 253.565414 188.62308 
L 254.124812 188.614907 
L 254.684211 188.378716 
L 255.243609 188.272471 
L 255.803008 188.01503 
L 256.362406 187.616202 
L 256.921805 187.412701 
L 257.481203 187.369386 
L 258.6 186.834891 
L 260.837594 186.691868 
L 261.396992 186.142662 
L 262.515789 186.051128 
L 263.075188 185.805129 
L 264.193985 185.701336 
L 265.312782 185.49048 
L 265.87218 185.462693 
L 266.431579 185.043433 
L 267.550376 184.90041 
L 268.109774 184.700996 
L 270.347368 184.299716 
L 271.466165 183.958097 
L 273.144361 183.742337 
L 273.703759 183.413794 
L 274.263158 183.377834 
L 275.941353 182.674164 
L 277.06015 182.454318 
L 278.178947 181.638681 
L 278.738346 181.626422 
L 279.297744 180.727424 
L 279.857143 180.623631 
L 280.416541 180.353931 
L 280.97594 180.28528 
L 282.094737 179.677231 
L 282.654135 179.637184 
L 283.213534 179.152543 
L 283.772932 179.122304 
L 284.332331 178.192249 
L 284.891729 178.100715 
L 285.451128 177.722318 
L 286.010526 177.187006 
L 287.129323 176.849473 
L 288.807519 176.636982 
L 289.366917 176.474345 
L 289.926316 176.171955 
L 291.045113 176.048547 
L 291.604511 175.987252 
L 292.16391 175.719187 
L 292.723308 175.021237 
L 293.282707 174.949317 
L 293.842105 174.651831 
L 294.960902 174.375593 
L 295.520301 174.10099 
L 296.639098 174.026618 
L 297.198496 173.063056 
L 298.317293 173.035269 
L 298.876692 172.713264 
L 299.43609 172.069254 
L 299.995489 172.053726 
L 300.554887 170.867866 
L 301.114286 170.694604 
L 301.673684 170.388128 
L 302.233083 170.260633 
L 302.792481 169.776809 
L 303.35188 169.726138 
L 303.911278 169.281543 
L 304.470677 169.233324 
L 305.030075 169.053524 
L 305.589474 168.292645 
L 306.708271 167.977178 
L 307.267669 167.603685 
L 307.827068 166.629498 
L 308.386466 166.377778 
L 308.945865 165.605457 
L 311.183459 163.595788 
L 312.302256 163.527137 
L 312.861654 163.290128 
L 313.421053 162.898655 
L 314.53985 162.351901 
L 315.658647 161.302525 
L 316.218045 161.084314 
L 316.777444 161.044267 
L 317.896241 160.602124 
L 319.015038 160.514676 
L 319.574436 160.013689 
L 320.133835 158.573657 
L 320.693233 156.201936 
L 321.252632 155.33236 
L 321.81203 155.058574 
L 322.371429 154.464418 
L 323.490226 153.679838 
L 324.609023 151.075195 
L 325.168421 145.494868 
L 325.72782 141.032568 
L 326.287218 139.558211 
L 326.846617 138.780169 
L 328.524812 135.585456 
L 329.084211 135.560938 
L 329.643609 135.183359 
L 330.203008 131.563665 
L 330.762406 119.890582 
L 331.321805 116.892015 
L 331.881203 111.608357 
L 332.440602 102.665777 
L 333 69.663554 
L 333 69.663554 
" style="fill:none;stroke:#0000ff;stroke-linecap:square;"/>
   </g>
   <g id="patch_3">
    <path d="M 109.8 28.8 
L 333 28.8 
" style="fill:none;stroke:#000000;stroke-linecap:square;stroke-linejoin:miter;"/>
   </g>
   <g id="patch_4">
    <path d="M 333 252 
L 333 28.8 
" style="fill:none;stroke:#000000;stroke-linecap:square;stroke-linejoin:miter;"/>
   </g>
   <g id="patch_5">
    <path d="M 109.8 252 
L 333 252 
" style="fill:none;stroke:#000000;stroke-linecap:square;stroke-linejoin:miter;"/>
   </g>
   <g id="patch_6">
    <path d="M 109.8 252 
L 109.8 28.8 
" style="fill:none;stroke:#000000;stroke-linecap:square;stroke-linejoin:miter;"/>
   </g>
   <g id="matplotlib.axis_1">
    <g id="xtick_1">
     <g id="line2d_2">
      <path clip-path="url(#pae43e64f57)" d="M 109.8 252 
L 109.8 28.8 
" style="fill:none;stroke:#000000;stroke-dasharray:1.000000,3.000000;stroke-dashoffset:0.0;stroke-width:0.5;"/>
     </g>
     <g id="line2d_3">
      <defs>
       <path d="M 0 0 
L 0 -4 
" id="m5826bf6eb0" style="stroke:#000000;stroke-width:0.5;"/>
      </defs>
      <g>
       <use style="stroke:#000000;stroke-width:0.5;" x="109.8" xlink:href="#m5826bf6eb0" y="252.0"/>
      </g>
     </g>
     <g id="line2d_4">
      <defs>
       <path d="M 0 0 
L 0 4 
" id="m28ad52e466" style="stroke:#000000;stroke-width:0.5;"/>
      </defs>
      <g>
       <use style="stroke:#000000;stroke-width:0.5;" x="109.8" xlink:href="#m28ad52e466" y="28.8"/>
      </g>
     </g>
    </g>
    <g id="xtick_2">
     <g id="line2d_5">
      <path clip-path="url(#pae43e64f57)" d="M 137.769925 252 
L 137.769925 28.8 
" style="fill:none;stroke:#000000;stroke-dasharray:1.000000,3.000000;stroke-dashoffset:0.0;stroke-width:0.5;"/>
     </g>
     <g id="line2d_6">
      <g>
       <use style="stroke:#000000;stroke-width:0.5;" x="137.769924812" xlink:href="#m5826bf6eb0" y="252.0"/>
      </g>
     </g>
     <g id="line2d_7">
      <g>
       <use style="stroke:#000000;stroke-width:0.5;" x="137.769924812" xlink:href="#m28ad52e466" y="28.8"/>
      </g>
     </g>
    </g>
    <g id="xtick_3">
     <g id="line2d_8">
      <path clip-path="url(#pae43e64f57)" d="M 165.73985 252 
L 165.73985 28.8 
" style="fill:none;stroke:#000000;stroke-dasharray:1.000000,3.000000;stroke-dashoffset:0.0;stroke-width:0.5;"/>
     </g>
     <g id="line2d_9">
      <g>
       <use style="stroke:#000000;stroke-width:0.5;" x="165.739849624" xlink:href="#m5826bf6eb0" y="252.0"/>
      </g>
     </g>
     <g id="line2d_10">
      <g>
       <use style="stroke:#000000;stroke-width:0.5;" x="165.739849624" xlink:href="#m28ad52e466" y="28.8"/>
      </g>
     </g>
    </g>
    <g id="xtick_4">
     <g id="line2d_11">
      <path clip-path="url(#pae43e64f57)" d="M 193.709774 252 
L 193.709774 28.8 
" style="fill:none;stroke:#000000;stroke-dasharray:1.000000,3.000000;stroke-dashoffset:0.0;stroke-width:0.5;"/>
     </g>
     <g id="line2d_12">
      <g>
       <use style="stroke:#000000;stroke-width:0.5;" x="193.709774436" xlink:href="#m5826bf6eb0" y="252.0"/>
      </g>
     </g>
     <g id="line2d_13">
      <g>
       <use style="stroke:#000000;stroke-width:0.5;" x="193.709774436" xlink:href="#m28ad52e466" y="28.8"/>
      </g>
     </g>
    </g>
    <g id="xtick_5">
     <g id="line2d_14">
      <path clip-path="url(#pae43e64f57)" d="M 221.679699 252 
L 221.679699 28.8 
" style="fill:none;stroke:#000000;stroke-dasharray:1.000000,3.000000;stroke-dashoffset:0.0;stroke-width:0.5;"/>
     </g>
     <g id="line2d_15">
      <g>
       <use style="stroke:#000000;stroke-width:0.5;" x="221.679699248" xlink:href="#m5826bf6eb0" y="252.0"/>
      </g>
     </g>
     <g id="line2d_16">
      <g>
       <use style="stroke:#000000;stroke-width:0.5;" x="221.679699248" xlink:href="#m28ad52e466" y="28.8"/>
      </g>
     </g>
    </g>
    <g id="xtick_6">
     <g id="line2d_17">
      <path clip-path="url(#pae43e64f57)" d="M 249.649624 252 
L 249.649624 28.8 
" style="fill:none;stroke:#000000;stroke-dasharray:1.000000,3.000000;stroke-dashoffset:0.0;stroke-width:0.5;"/>
     </g>
     <g id="line2d_18">
      <g>
       <use style="stroke:#000000;stroke-width:0.5;" x="249.64962406" xlink:href="#m5826bf6eb0" y="252.0"/>
      </g>
     </g>
     <g id="line2d_19">
      <g>
       <use style="stroke:#000000;stroke-width:0.5;" x="249.64962406" xlink:href="#m28ad52e466" y="28.8"/>
      </g>
     </g>
    </g>
    <g id="xtick_7">
     <g id="line2d_20">
      <path clip-path="url(#pae43e64f57)" d="M 277.619549 252 
L 277.619549 28.8 
" style="fill:none;stroke:#000000;stroke-dasharray:1.000000,3.000000;stroke-dashoffset:0.0;stroke-width:0.5;"/>
     </g>
     <g id="line2d_21">
      <g>
       <use style="stroke:#000000;stroke-width:0.5;" x="277.619548872" xlink:href="#m5826bf6eb0" y="252.0"/>
      </g>
     </g>
     <g id="line2d_22">
      <g>
       <use style="stroke:#000000;stroke-width:0.5;" x="277.619548872" xlink:href="#m28ad52e466" y="28.8"/>
      </g>
     </g>
    </g>
    <g id="xtick_8">
     <g id="line2d_23">
      <path clip-path="url(#pae43e64f57)" d="M 305.589474 252 
L 305.589474 28.8 
" style="fill:none;stroke:#000000;stroke-dasharray:1.000000,3.000000;stroke-dashoffset:0.0;stroke-width:0.5;"/>
     </g>
     <g id="line2d_24">
      <g>
       <use style="stroke:#000000;stroke-width:0.5;" x="305.589473684" xlink:href="#m5826bf6eb0" y="252.0"/>
      </g>
     </g>
     <g id="line2d_25">
      <g>
       <use style="stroke:#000000;stroke-width:0.5;" x="305.589473684" xlink:href="#m28ad52e466" y="28.8"/>
      </g>
     </g>
    </g>
    <g id="text_1">
     <!-- 400 data sets -->
     <defs>
      <path d="M 31.78125 66.40625 
Q 24.171875 66.40625 20.328125 58.90625 
Q 16.5 51.421875 16.5 36.375 
Q 16.5 21.390625 20.328125 13.890625 
Q 24.171875 6.390625 31.78125 6.390625 
Q 39.453125 6.390625 43.28125 13.890625 
Q 47.125 21.390625 47.125 36.375 
Q 47.125 51.421875 43.28125 58.90625 
Q 39.453125 66.40625 31.78125 66.40625 
M 31.78125 74.21875 
Q 44.046875 74.21875 50.515625 64.515625 
Q 56.984375 54.828125 56.984375 36.375 
Q 56.984375 17.96875 50.515625 8.265625 
Q 44.046875 -1.421875 31.78125 -1.421875 
Q 19.53125 -1.421875 13.0625 8.265625 
Q 6.59375 17.96875 6.59375 36.375 
Q 6.59375 54.828125 13.0625 64.515625 
Q 19.53125 74.21875 31.78125 74.21875 
" id="DejaVuSans-30"/>
      <path id="DejaVuSans-20"/>
      <path d="M 37.796875 64.3125 
L 12.890625 25.390625 
L 37.796875 25.390625 
z
M 35.203125 72.90625 
L 47.609375 72.90625 
L 47.609375 25.390625 
L 58.015625 25.390625 
L 58.015625 17.1875 
L 47.609375 17.1875 
L 47.609375 0 
L 37.796875 0 
L 37.796875 17.1875 
L 4.890625 17.1875 
L 4.890625 26.703125 
z
" id="DejaVuSans-34"/>
      <path d="M 18.3125 70.21875 
L 18.3125 54.6875 
L 36.8125 54.6875 
L 36.8125 47.703125 
L 18.3125 47.703125 
L 18.3125 18.015625 
Q 18.3125 11.328125 20.140625 9.421875 
Q 21.96875 7.515625 27.59375 7.515625 
L 36.8125 7.515625 
L 36.8125 0 
L 27.59375 0 
Q 17.1875 0 13.234375 3.875 
Q 9.28125 7.765625 9.28125 18.015625 
L 9.28125 47.703125 
L 2.6875 47.703125 
L 2.6875 54.6875 
L 9.28125 54.6875 
L 9.28125 70.21875 
z
" id="DejaVuSans-74"/>
      <path d="M 45.40625 46.390625 
L 45.40625 75.984375 
L 54.390625 75.984375 
L 54.390625 0 
L 45.40625 0 
L 45.40625 8.203125 
Q 42.578125 3.328125 38.25 0.953125 
Q 33.9375 -1.421875 27.875 -1.421875 
Q 17.96875 -1.421875 11.734375 6.484375 
Q 5.515625 14.40625 5.515625 27.296875 
Q 5.515625 40.1875 11.734375 48.09375 
Q 17.96875 56 27.875 56 
Q 33.9375 56 38.25 53.625 
Q 42.578125 51.265625 45.40625 46.390625 
M 14.796875 27.296875 
Q 14.796875 17.390625 18.875 11.75 
Q 22.953125 6.109375 30.078125 6.109375 
Q 37.203125 6.109375 41.296875 11.75 
Q 45.40625 17.390625 45.40625 27.296875 
Q 45.40625 37.203125 41.296875 42.84375 
Q 37.203125 48.484375 30.078125 48.484375 
Q 22.953125 48.484375 18.875 42.84375 
Q 14.796875 37.203125 14.796875 27.296875 
" id="DejaVuSans-64"/>
      <path d="M 56.203125 29.59375 
L 56.203125 25.203125 
L 14.890625 25.203125 
Q 15.484375 15.921875 20.484375 11.0625 
Q 25.484375 6.203125 34.421875 6.203125 
Q 39.59375 6.203125 44.453125 7.46875 
Q 49.3125 8.734375 54.109375 11.28125 
L 54.109375 2.78125 
Q 49.265625 0.734375 44.1875 -0.34375 
Q 39.109375 -1.421875 33.890625 -1.421875 
Q 20.796875 -1.421875 13.15625 6.1875 
Q 5.515625 13.8125 5.515625 26.8125 
Q 5.515625 40.234375 12.765625 48.109375 
Q 20.015625 56 32.328125 56 
Q 43.359375 56 49.78125 48.890625 
Q 56.203125 41.796875 56.203125 29.59375 
M 47.21875 32.234375 
Q 47.125 39.59375 43.09375 43.984375 
Q 39.0625 48.390625 32.421875 48.390625 
Q 24.90625 48.390625 20.390625 44.140625 
Q 15.875 39.890625 15.1875 32.171875 
z
" id="DejaVuSans-65"/>
      <path d="M 44.28125 53.078125 
L 44.28125 44.578125 
Q 40.484375 46.53125 36.375 47.5 
Q 32.28125 48.484375 27.875 48.484375 
Q 21.1875 48.484375 17.84375 46.4375 
Q 14.5 44.390625 14.5 40.28125 
Q 14.5 37.15625 16.890625 35.375 
Q 19.28125 33.59375 26.515625 31.984375 
L 29.59375 31.296875 
Q 39.15625 29.25 43.1875 25.515625 
Q 47.21875 21.78125 47.21875 15.09375 
Q 47.21875 7.46875 41.1875 3.015625 
Q 35.15625 -1.421875 24.609375 -1.421875 
Q 20.21875 -1.421875 15.453125 -0.5625 
Q 10.6875 0.296875 5.421875 2 
L 5.421875 11.28125 
Q 10.40625 8.6875 15.234375 7.390625 
Q 20.0625 6.109375 24.8125 6.109375 
Q 31.15625 6.109375 34.5625 8.28125 
Q 37.984375 10.453125 37.984375 14.40625 
Q 37.984375 18.0625 35.515625 20.015625 
Q 33.0625 21.96875 24.703125 23.78125 
L 21.578125 24.515625 
Q 13.234375 26.265625 9.515625 29.90625 
Q 5.8125 33.546875 5.8125 39.890625 
Q 5.8125 47.609375 11.28125 51.796875 
Q 16.75 56 26.8125 56 
Q 31.78125 56 36.171875 55.265625 
Q 40.578125 54.546875 44.28125 53.078125 
" id="DejaVuSans-73"/>
      <path d="M 34.28125 27.484375 
Q 23.390625 27.484375 19.1875 25 
Q 14.984375 22.515625 14.984375 16.5 
Q 14.984375 11.71875 18.140625 8.90625 
Q 21.296875 6.109375 26.703125 6.109375 
Q 34.1875 6.109375 38.703125 11.40625 
Q 43.21875 16.703125 43.21875 25.484375 
L 43.21875 27.484375 
z
M 52.203125 31.203125 
L 52.203125 0 
L 43.21875 0 
L 43.21875 8.296875 
Q 40.140625 3.328125 35.546875 0.953125 
Q 30.953125 -1.421875 24.3125 -1.421875 
Q 15.921875 -1.421875 10.953125 3.296875 
Q 6 8.015625 6 15.921875 
Q 6 25.140625 12.171875 29.828125 
Q 18.359375 34.515625 30.609375 34.515625 
L 43.21875 34.515625 
L 43.21875 35.40625 
Q 43.21875 41.609375 39.140625 45 
Q 35.0625 48.390625 27.6875 48.390625 
Q 23 48.390625 18.546875 47.265625 
Q 14.109375 46.140625 10.015625 43.890625 
L 10.015625 52.203125 
Q 14.9375 54.109375 19.578125 55.046875 
Q 24.21875 56 28.609375 56 
Q 40.484375 56 46.34375 49.84375 
Q 52.203125 43.703125 52.203125 31.203125 
" id="DejaVuSans-61"/>
     </defs>
     <g transform="translate(187.16953125 264.5984375)scale(0.1 -0.1)">
      <use xlink:href="#DejaVuSans-34"/>
      <use x="63.623046875" xlink:href="#DejaVuSans-30"/>
      <use x="127.24609375" xlink:href="#DejaVuSans-30"/>
      <use x="190.869140625" xlink:href="#DejaVuSans-20"/>
      <use x="222.65625" xlink:href="#DejaVuSans-64"/>
      <use x="286.1328125" xlink:href="#DejaVuSans-61"/>
      <use x="347.412109375" xlink:href="#DejaVuSans-74"/>
      <use x="386.62109375" xlink:href="#DejaVuSans-61"/>
      <use x="447.900390625" xlink:href="#DejaVuSans-20"/>
      <use x="479.6875" xlink:href="#DejaVuSans-73"/>
      <use x="531.787109375" xlink:href="#DejaVuSans-65"/>
      <use x="593.310546875" xlink:href="#DejaVuSans-74"/>
      <use x="632.51953125" xlink:href="#DejaVuSans-73"/>
     </g>
    </g>
   </g>
   <g id="matplotlib.axis_2">
    <g id="ytick_1">
     <g id="line2d_26">
      <path clip-path="url(#pae43e64f57)" d="M 109.8 215.270203 
L 333 215.270203 
" style="fill:none;stroke:#000000;stroke-dasharray:1.000000,3.000000;stroke-dashoffset:0.0;stroke-width:0.5;"/>
     </g>
     <g id="line2d_27">
      <defs>
       <path d="M 0 0 
L 4 0 
" id="mf153ffb651" style="stroke:#000000;stroke-width:0.5;"/>
      </defs>
      <g>
       <use style="stroke:#000000;stroke-width:0.5;" x="109.8" xlink:href="#mf153ffb651" y="215.270203293"/>
      </g>
     </g>
     <g id="line2d_28">
      <defs>
       <path d="M 0 0 
L -4 0 
" id="m6d4b846a86" style="stroke:#000000;stroke-width:0.5;"/>
      </defs>
      <g>
       <use style="stroke:#000000;stroke-width:0.5;" x="333.0" xlink:href="#m6d4b846a86" y="215.270203293"/>
      </g>
     </g>
     <g id="text_2">
      <!-- 0.00 -->
      <defs>
       <path d="M 10.6875 12.40625 
L 21 12.40625 
L 21 0 
L 10.6875 0 
z
" id="DejaVuSans-2e"/>
      </defs>
      <g transform="translate(83.534375 218.029578293)scale(0.1 -0.1)">
       <use xlink:href="#DejaVuSans-30"/>
       <use x="63.623046875" xlink:href="#DejaVuSans-2e"/>
       <use x="95.41015625" xlink:href="#DejaVuSans-30"/>
       <use x="159.033203125" xlink:href="#DejaVuSans-30"/>
      </g>
     </g>
    </g>
    <g id="ytick_2">
     <g id="line2d_29">
      <path clip-path="url(#pae43e64f57)" d="M 109.8 174.406649 
L 333 174.406649 
" style="fill:none;stroke:#000000;stroke-dasharray:1.000000,3.000000;stroke-dashoffset:0.0;stroke-width:0.5;"/>
     </g>
     <g id="line2d_30">
      <g>
       <use style="stroke:#000000;stroke-width:0.5;" x="109.8" xlink:href="#mf153ffb651" y="174.406649482"/>
      </g>
     </g>
     <g id="line2d_31">
      <g>
       <use style="stroke:#000000;stroke-width:0.5;" x="333.0" xlink:href="#m6d4b846a86" y="174.406649482"/>
      </g>
     </g>
     <g id="text_3">
      <!-- 0.05 -->
      <defs>
       <path d="M 10.796875 72.90625 
L 49.515625 72.90625 
L 49.515625 64.59375 
L 19.828125 64.59375 
L 19.828125 46.734375 
Q 21.96875 47.46875 24.109375 47.828125 
Q 26.265625 48.1875 28.421875 48.1875 
Q 40.625 48.1875 47.75 41.5 
Q 54.890625 34.8125 54.890625 23.390625 
Q 54.890625 11.625 47.5625 5.09375 
Q 40.234375 -1.421875 26.90625 -1.421875 
Q 22.3125 -1.421875 17.546875 -0.640625 
Q 12.796875 0.140625 7.71875 1.703125 
L 7.71875 11.625 
Q 12.109375 9.234375 16.796875 8.0625 
Q 21.484375 6.890625 26.703125 6.890625 
Q 35.15625 6.890625 40.078125 11.328125 
Q 45.015625 15.765625 45.015625 23.390625 
Q 45.015625 31 40.078125 35.4375 
Q 35.15625 39.890625 26.703125 39.890625 
Q 22.75 39.890625 18.8125 39.015625 
Q 14.890625 38.140625 10.796875 36.28125 
z
" id="DejaVuSans-35"/>
      </defs>
      <g transform="translate(83.534375 177.166024482)scale(0.1 -0.1)">
       <use xlink:href="#DejaVuSans-30"/>
       <use x="63.623046875" xlink:href="#DejaVuSans-2e"/>
       <use x="95.41015625" xlink:href="#DejaVuSans-30"/>
       <use x="159.033203125" xlink:href="#DejaVuSans-35"/>
      </g>
     </g>
    </g>
    <g id="ytick_3">
     <g id="line2d_32">
      <path clip-path="url(#pae43e64f57)" d="M 109.8 133.543096 
L 333 133.543096 
" style="fill:none;stroke:#000000;stroke-dasharray:1.000000,3.000000;stroke-dashoffset:0.0;stroke-width:0.5;"/>
     </g>
     <g id="line2d_33">
      <g>
       <use style="stroke:#000000;stroke-width:0.5;" x="109.8" xlink:href="#mf153ffb651" y="133.543095671"/>
      </g>
     </g>
     <g id="line2d_34">
      <g>
       <use style="stroke:#000000;stroke-width:0.5;" x="333.0" xlink:href="#m6d4b846a86" y="133.543095671"/>
      </g>
     </g>
     <g id="text_4">
      <!-- 0.10 -->
      <defs>
       <path d="M 12.40625 8.296875 
L 28.515625 8.296875 
L 28.515625 63.921875 
L 10.984375 60.40625 
L 10.984375 69.390625 
L 28.421875 72.90625 
L 38.28125 72.90625 
L 38.28125 8.296875 
L 54.390625 8.296875 
L 54.390625 0 
L 12.40625 0 
z
" id="DejaVuSans-31"/>
      </defs>
      <g transform="translate(83.534375 136.302470671)scale(0.1 -0.1)">
       <use xlink:href="#DejaVuSans-30"/>
       <use x="63.623046875" xlink:href="#DejaVuSans-2e"/>
       <use x="95.41015625" xlink:href="#DejaVuSans-31"/>
       <use x="159.033203125" xlink:href="#DejaVuSans-30"/>
      </g>
     </g>
    </g>
    <g id="ytick_4">
     <g id="line2d_35">
      <path clip-path="url(#pae43e64f57)" d="M 109.8 92.679542 
L 333 92.679542 
" style="fill:none;stroke:#000000;stroke-dasharray:1.000000,3.000000;stroke-dashoffset:0.0;stroke-width:0.5;"/>
     </g>
     <g id="line2d_36">
      <g>
       <use style="stroke:#000000;stroke-width:0.5;" x="109.8" xlink:href="#mf153ffb651" y="92.6795418595"/>
      </g>
     </g>
     <g id="line2d_37">
      <g>
       <use style="stroke:#000000;stroke-width:0.5;" x="333.0" xlink:href="#m6d4b846a86" y="92.6795418595"/>
      </g>
     </g>
     <g id="text_5">
      <!-- 0.15 -->
      <g transform="translate(83.534375 95.4389168595)scale(0.1 -0.1)">
       <use xlink:href="#DejaVuSans-30"/>
       <use x="63.623046875" xlink:href="#DejaVuSans-2e"/>
       <use x="95.41015625" xlink:href="#DejaVuSans-31"/>
       <use x="159.033203125" xlink:href="#DejaVuSans-35"/>
      </g>
     </g>
    </g>
    <g id="ytick_5">
     <g id="line2d_38">
      <path clip-path="url(#pae43e64f57)" d="M 109.8 51.815988 
L 333 51.815988 
" style="fill:none;stroke:#000000;stroke-dasharray:1.000000,3.000000;stroke-dashoffset:0.0;stroke-width:0.5;"/>
     </g>
     <g id="line2d_39">
      <g>
       <use style="stroke:#000000;stroke-width:0.5;" x="109.8" xlink:href="#mf153ffb651" y="51.8159880485"/>
      </g>
     </g>
     <g id="line2d_40">
      <g>
       <use style="stroke:#000000;stroke-width:0.5;" x="333.0" xlink:href="#m6d4b846a86" y="51.8159880485"/>
      </g>
     </g>
     <g id="text_6">
      <!-- 0.20 -->
      <defs>
       <path d="M 19.1875 8.296875 
L 53.609375 8.296875 
L 53.609375 0 
L 7.328125 0 
L 7.328125 8.296875 
Q 12.9375 14.109375 22.625 23.890625 
Q 32.328125 33.6875 34.8125 36.53125 
Q 39.546875 41.84375 41.421875 45.53125 
Q 43.3125 49.21875 43.3125 52.78125 
Q 43.3125 58.59375 39.234375 62.25 
Q 35.15625 65.921875 28.609375 65.921875 
Q 23.96875 65.921875 18.8125 64.3125 
Q 13.671875 62.703125 7.8125 59.421875 
L 7.8125 69.390625 
Q 13.765625 71.78125 18.9375 73 
Q 24.125 74.21875 28.421875 74.21875 
Q 39.75 74.21875 46.484375 68.546875 
Q 53.21875 62.890625 53.21875 53.421875 
Q 53.21875 48.921875 51.53125 44.890625 
Q 49.859375 40.875 45.40625 35.40625 
Q 44.1875 33.984375 37.640625 27.21875 
Q 31.109375 20.453125 19.1875 8.296875 
" id="DejaVuSans-32"/>
      </defs>
      <g transform="translate(83.534375 54.5753630485)scale(0.1 -0.1)">
       <use xlink:href="#DejaVuSans-30"/>
       <use x="63.623046875" xlink:href="#DejaVuSans-2e"/>
       <use x="95.41015625" xlink:href="#DejaVuSans-32"/>
       <use x="159.033203125" xlink:href="#DejaVuSans-30"/>
      </g>
     </g>
    </g>
    <g id="text_7">
     <!-- AUPRC (PSSM + DNA shape) -->
     <defs>
      <path d="M 9.8125 72.90625 
L 24.515625 72.90625 
L 43.109375 23.296875 
L 61.8125 72.90625 
L 76.515625 72.90625 
L 76.515625 0 
L 66.890625 0 
L 66.890625 64.015625 
L 48.09375 14.015625 
L 38.1875 14.015625 
L 19.390625 64.015625 
L 19.390625 0 
L 9.8125 0 
z
" id="DejaVuSans-4d"/>
      <path d="M 46 62.703125 
L 46 35.5 
L 73.1875 35.5 
L 73.1875 27.203125 
L 46 27.203125 
L 46 0 
L 37.796875 0 
L 37.796875 27.203125 
L 10.59375 27.203125 
L 10.59375 35.5 
L 37.796875 35.5 
L 37.796875 62.703125 
z
" id="DejaVuSans-2b"/>
      <path d="M 8.015625 75.875 
L 15.828125 75.875 
Q 23.140625 64.359375 26.78125 53.3125 
Q 30.421875 42.28125 30.421875 31.390625 
Q 30.421875 20.453125 26.78125 9.375 
Q 23.140625 -1.703125 15.828125 -13.1875 
L 8.015625 -13.1875 
Q 14.5 -2 17.703125 9.0625 
Q 20.90625 20.125 20.90625 31.390625 
Q 20.90625 42.671875 17.703125 53.65625 
Q 14.5 64.65625 8.015625 75.875 
" id="DejaVuSans-29"/>
      <path d="M 9.8125 72.90625 
L 23.09375 72.90625 
L 55.421875 11.921875 
L 55.421875 72.90625 
L 64.984375 72.90625 
L 64.984375 0 
L 51.703125 0 
L 19.390625 60.984375 
L 19.390625 0 
L 9.8125 0 
z
" id="DejaVuSans-4e"/>
      <path d="M 19.671875 64.796875 
L 19.671875 8.109375 
L 31.59375 8.109375 
Q 46.6875 8.109375 53.6875 14.9375 
Q 60.6875 21.78125 60.6875 36.53125 
Q 60.6875 51.171875 53.6875 57.984375 
Q 46.6875 64.796875 31.59375 64.796875 
z
M 9.8125 72.90625 
L 30.078125 72.90625 
Q 51.265625 72.90625 61.171875 64.09375 
Q 71.09375 55.28125 71.09375 36.53125 
Q 71.09375 17.671875 61.125 8.828125 
Q 51.171875 0 30.078125 0 
L 9.8125 0 
z
" id="DejaVuSans-44"/>
      <path d="M 34.1875 63.1875 
L 20.796875 26.90625 
L 47.609375 26.90625 
z
M 28.609375 72.90625 
L 39.796875 72.90625 
L 67.578125 0 
L 57.328125 0 
L 50.6875 18.703125 
L 17.828125 18.703125 
L 11.1875 0 
L 0.78125 0 
z
" id="DejaVuSans-41"/>
      <path d="M 54.890625 33.015625 
L 54.890625 0 
L 45.90625 0 
L 45.90625 32.71875 
Q 45.90625 40.484375 42.875 44.328125 
Q 39.84375 48.1875 33.796875 48.1875 
Q 26.515625 48.1875 22.3125 43.546875 
Q 18.109375 38.921875 18.109375 30.90625 
L 18.109375 0 
L 9.078125 0 
L 9.078125 75.984375 
L 18.109375 75.984375 
L 18.109375 46.1875 
Q 21.34375 51.125 25.703125 53.5625 
Q 30.078125 56 35.796875 56 
Q 45.21875 56 50.046875 50.171875 
Q 54.890625 44.34375 54.890625 33.015625 
" id="DejaVuSans-68"/>
      <path d="M 64.40625 67.28125 
L 64.40625 56.890625 
Q 59.421875 61.53125 53.78125 63.8125 
Q 48.140625 66.109375 41.796875 66.109375 
Q 29.296875 66.109375 22.65625 58.46875 
Q 16.015625 50.828125 16.015625 36.375 
Q 16.015625 21.96875 22.65625 14.328125 
Q 29.296875 6.6875 41.796875 6.6875 
Q 48.140625 6.6875 53.78125 8.984375 
Q 59.421875 11.28125 64.40625 15.921875 
L 64.40625 5.609375 
Q 59.234375 2.09375 53.4375 0.328125 
Q 47.65625 -1.421875 41.21875 -1.421875 
Q 24.65625 -1.421875 15.125 8.703125 
Q 5.609375 18.84375 5.609375 36.375 
Q 5.609375 53.953125 15.125 64.078125 
Q 24.65625 74.21875 41.21875 74.21875 
Q 47.75 74.21875 53.53125 72.484375 
Q 59.328125 70.75 64.40625 67.28125 
" id="DejaVuSans-43"/>
      <path d="M 53.515625 70.515625 
L 53.515625 60.890625 
Q 47.90625 63.578125 42.921875 64.890625 
Q 37.9375 66.21875 33.296875 66.21875 
Q 25.25 66.21875 20.875 63.09375 
Q 16.5 59.96875 16.5 54.203125 
Q 16.5 49.359375 19.40625 46.890625 
Q 22.3125 44.4375 30.421875 42.921875 
L 36.375 41.703125 
Q 47.40625 39.59375 52.65625 34.296875 
Q 57.90625 29 57.90625 20.125 
Q 57.90625 9.515625 50.796875 4.046875 
Q 43.703125 -1.421875 29.984375 -1.421875 
Q 24.8125 -1.421875 18.96875 -0.25 
Q 13.140625 0.921875 6.890625 3.21875 
L 6.890625 13.375 
Q 12.890625 10.015625 18.65625 8.296875 
Q 24.421875 6.59375 29.984375 6.59375 
Q 38.421875 6.59375 43.015625 9.90625 
Q 47.609375 13.234375 47.609375 19.390625 
Q 47.609375 24.75 44.3125 27.78125 
Q 41.015625 30.8125 33.5 32.328125 
L 27.484375 33.5 
Q 16.453125 35.6875 11.515625 40.375 
Q 6.59375 45.0625 6.59375 53.421875 
Q 6.59375 63.09375 13.40625 68.65625 
Q 20.21875 74.21875 32.171875 74.21875 
Q 37.3125 74.21875 42.625 73.28125 
Q 47.953125 72.359375 53.515625 70.515625 
" id="DejaVuSans-53"/>
      <path d="M 44.390625 34.1875 
Q 47.5625 33.109375 50.5625 29.59375 
Q 53.5625 26.078125 56.59375 19.921875 
L 66.609375 0 
L 56 0 
L 46.6875 18.703125 
Q 43.0625 26.03125 39.671875 28.421875 
Q 36.28125 30.8125 30.421875 30.8125 
L 19.671875 30.8125 
L 19.671875 0 
L 9.8125 0 
L 9.8125 72.90625 
L 32.078125 72.90625 
Q 44.578125 72.90625 50.734375 67.671875 
Q 56.890625 62.453125 56.890625 51.90625 
Q 56.890625 45.015625 53.6875 40.46875 
Q 50.484375 35.9375 44.390625 34.1875 
M 19.671875 64.796875 
L 19.671875 38.921875 
L 32.078125 38.921875 
Q 39.203125 38.921875 42.84375 42.21875 
Q 46.484375 45.515625 46.484375 51.90625 
Q 46.484375 58.296875 42.84375 61.546875 
Q 39.203125 64.796875 32.078125 64.796875 
z
" id="DejaVuSans-52"/>
      <path d="M 31 75.875 
Q 24.46875 64.65625 21.28125 53.65625 
Q 18.109375 42.671875 18.109375 31.390625 
Q 18.109375 20.125 21.3125 9.0625 
Q 24.515625 -2 31 -13.1875 
L 23.1875 -13.1875 
Q 15.875 -1.703125 12.234375 9.375 
Q 8.59375 20.453125 8.59375 31.390625 
Q 8.59375 42.28125 12.203125 53.3125 
Q 15.828125 64.359375 23.1875 75.875 
z
" id="DejaVuSans-28"/>
      <path d="M 19.671875 64.796875 
L 19.671875 37.40625 
L 32.078125 37.40625 
Q 38.96875 37.40625 42.71875 40.96875 
Q 46.484375 44.53125 46.484375 51.125 
Q 46.484375 57.671875 42.71875 61.234375 
Q 38.96875 64.796875 32.078125 64.796875 
z
M 9.8125 72.90625 
L 32.078125 72.90625 
Q 44.34375 72.90625 50.609375 67.359375 
Q 56.890625 61.8125 56.890625 51.125 
Q 56.890625 40.328125 50.609375 34.8125 
Q 44.34375 29.296875 32.078125 29.296875 
L 19.671875 29.296875 
L 19.671875 0 
L 9.8125 0 
z
" id="DejaVuSans-50"/>
      <path d="M 18.109375 8.203125 
L 18.109375 -20.796875 
L 9.078125 -20.796875 
L 9.078125 54.6875 
L 18.109375 54.6875 
L 18.109375 46.390625 
Q 20.953125 51.265625 25.265625 53.625 
Q 29.59375 56 35.59375 56 
Q 45.5625 56 51.78125 48.09375 
Q 58.015625 40.1875 58.015625 27.296875 
Q 58.015625 14.40625 51.78125 6.484375 
Q 45.5625 -1.421875 35.59375 -1.421875 
Q 29.59375 -1.421875 25.265625 0.953125 
Q 20.953125 3.328125 18.109375 8.203125 
M 48.6875 27.296875 
Q 48.6875 37.203125 44.609375 42.84375 
Q 40.53125 48.484375 33.40625 48.484375 
Q 26.265625 48.484375 22.1875 42.84375 
Q 18.109375 37.203125 18.109375 27.296875 
Q 18.109375 17.390625 22.1875 11.75 
Q 26.265625 6.109375 33.40625 6.109375 
Q 40.53125 6.109375 44.609375 11.75 
Q 48.6875 17.390625 48.6875 27.296875 
" id="DejaVuSans-70"/>
      <path d="M 8.6875 72.90625 
L 18.609375 72.90625 
L 18.609375 28.609375 
Q 18.609375 16.890625 22.84375 11.734375 
Q 27.09375 6.59375 36.625 6.59375 
Q 46.09375 6.59375 50.34375 11.734375 
Q 54.59375 16.890625 54.59375 28.609375 
L 54.59375 72.90625 
L 64.5 72.90625 
L 64.5 27.390625 
Q 64.5 13.140625 57.4375 5.859375 
Q 50.390625 -1.421875 36.625 -1.421875 
Q 22.796875 -1.421875 15.734375 5.859375 
Q 8.6875 13.140625 8.6875 27.390625 
z
" id="DejaVuSans-55"/>
     </defs>
     <g transform="translate(65.256875 211.68046875)rotate(-90.0)scale(0.1 -0.1)">
      <use xlink:href="#DejaVuSans-41"/>
      <use x="68.408203125" xlink:href="#DejaVuSans-55"/>
      <use x="141.6015625" xlink:href="#DejaVuSans-50"/>
      <use x="201.904296875" xlink:href="#DejaVuSans-52"/>
      <use x="271.30859375" xlink:href="#DejaVuSans-43"/>
      <use x="341.1328125" xlink:href="#DejaVuSans-20"/>
      <use x="372.919921875" xlink:href="#DejaVuSans-28"/>
      <use x="411.93359375" xlink:href="#DejaVuSans-50"/>
      <use x="472.236328125" xlink:href="#DejaVuSans-53"/>
      <use x="535.712890625" xlink:href="#DejaVuSans-53"/>
      <use x="599.189453125" xlink:href="#DejaVuSans-4d"/>
      <use x="685.46875" xlink:href="#DejaVuSans-20"/>
      <use x="717.255859375" xlink:href="#DejaVuSans-2b"/>
      <use x="801.044921875" xlink:href="#DejaVuSans-20"/>
      <use x="832.83203125" xlink:href="#DejaVuSans-44"/>
      <use x="909.833984375" xlink:href="#DejaVuSans-4e"/>
      <use x="984.638671875" xlink:href="#DejaVuSans-41"/>
      <use x="1053.046875" xlink:href="#DejaVuSans-20"/>
      <use x="1084.83398438" xlink:href="#DejaVuSans-73"/>
      <use x="1136.93359375" xlink:href="#DejaVuSans-68"/>
      <use x="1200.3125" xlink:href="#DejaVuSans-61"/>
      <use x="1261.59179688" xlink:href="#DejaVuSans-70"/>
      <use x="1325.06835938" xlink:href="#DejaVuSans-65"/>
      <use x="1386.59179688" xlink:href="#DejaVuSans-29"/>
     </g>
     <!--  - AUPRC (PSSM) -->
     <defs>
      <path d="M 4.890625 31.390625 
L 31.203125 31.390625 
L 31.203125 23.390625 
L 4.890625 23.390625 
z
" id="DejaVuSans-2d"/>
     </defs>
     <g transform="translate(76.4546875 181.60625)rotate(-90.0)scale(0.1 -0.1)">
      <use xlink:href="#DejaVuSans-20"/>
      <use x="31.787109375" xlink:href="#DejaVuSans-2d"/>
      <use x="67.87109375" xlink:href="#DejaVuSans-20"/>
      <use x="99.658203125" xlink:href="#DejaVuSans-41"/>
      <use x="168.06640625" xlink:href="#DejaVuSans-55"/>
      <use x="241.259765625" xlink:href="#DejaVuSans-50"/>
      <use x="301.5625" xlink:href="#DejaVuSans-52"/>
      <use x="370.966796875" xlink:href="#DejaVuSans-43"/>
      <use x="440.791015625" xlink:href="#DejaVuSans-20"/>
      <use x="472.578125" xlink:href="#DejaVuSans-28"/>
      <use x="511.591796875" xlink:href="#DejaVuSans-50"/>
      <use x="571.89453125" xlink:href="#DejaVuSans-53"/>
      <use x="635.37109375" xlink:href="#DejaVuSans-53"/>
      <use x="698.84765625" xlink:href="#DejaVuSans-4d"/>
      <use x="785.126953125" xlink:href="#DejaVuSans-29"/>
     </g>
    </g>
   </g>
  </g>
 </g>
 <defs>
  <clipPath id="pae43e64f57">
   <rect height="223.2" width="223.2" x="109.8" y="28.8"/>
  </clipPath>
 </defs>
</svg>
